<svg xmlns="http://www.w3.org/2000/svg" xmlns:xlink="http://www.w3.org/1999/xlink" viewBox="0 0 2405.17 1749.56"><defs><style>.cls-1{fill:none;}.cls-100,.cls-101,.cls-102,.cls-103,.cls-104,.cls-105,.cls-106,.cls-107,.cls-108,.cls-109,.cls-2,.cls-59,.cls-60,.cls-61,.cls-62,.cls-63,.cls-64,.cls-65,.cls-66,.cls-67,.cls-68,.cls-69,.cls-70,.cls-71,.cls-72,.cls-73,.cls-74,.cls-75,.cls-76,.cls-77,.cls-78,.cls-79,.cls-80,.cls-81,.cls-82,.cls-83,.cls-84,.cls-85,.cls-86,.cls-87,.cls-88,.cls-89,.cls-90,.cls-91,.cls-92,.cls-93,.cls-94,.cls-95,.cls-96,.cls-97,.cls-98,.cls-99{fill:#fff;}.cls-3{fill:#f0fffe;}.cls-4{isolation:isolate;}.cls-5{opacity:0.28;}.cls-109,.cls-112,.cls-6{opacity:0;}.cls-7{fill:url(#New_Pattern);}.cls-113,.cls-8{opacity:0.02;}.cls-114,.cls-9{opacity:0.04;}.cls-10,.cls-115{opacity:0.06;}.cls-11,.cls-116{opacity:0.08;}.cls-117,.cls-12{opacity:0.1;}.cls-118,.cls-13{opacity:0.12;}.cls-119,.cls-14{opacity:0.14;}.cls-120,.cls-15{opacity:0.16;}.cls-121,.cls-16{opacity:0.18;}.cls-122,.cls-17{opacity:0.2;}.cls-123,.cls-18{opacity:0.22;}.cls-124,.cls-19{opacity:0.24;}.cls-125,.cls-20{opacity:0.25;}.cls-126,.cls-21{opacity:0.27;}.cls-127,.cls-22{opacity:0.29;}.cls-128,.cls-23{opacity:0.31;}.cls-129,.cls-24{opacity:0.33;}.cls-130,.cls-25{opacity:0.35;}.cls-131,.cls-26{opacity:0.37;}.cls-132,.cls-27{opacity:0.39;}.cls-133,.cls-28{opacity:0.41;}.cls-134,.cls-29{opacity:0.43;}.cls-135,.cls-30{opacity:0.45;}.cls-136,.cls-31{opacity:0.47;}.cls-137,.cls-32{opacity:0.49;}.cls-138,.cls-33{opacity:0.51;}.cls-139,.cls-34{opacity:0.53;}.cls-140,.cls-35{opacity:0.55;}.cls-141,.cls-36{opacity:0.57;}.cls-142,.cls-37{opacity:0.59;}.cls-143,.cls-38{opacity:0.61;}.cls-144,.cls-39{opacity:0.63;}.cls-145,.cls-40{opacity:0.65;}.cls-146,.cls-41{opacity:0.67;}.cls-147,.cls-42{opacity:0.69;}.cls-148,.cls-43{opacity:0.71;}.cls-149,.cls-44{opacity:0.73;}.cls-150,.cls-45{opacity:0.75;}.cls-151,.cls-46{opacity:0.76;}.cls-152,.cls-47{opacity:0.78;}.cls-153,.cls-48{opacity:0.8;}.cls-154,.cls-49{opacity:0.82;}.cls-155,.cls-50{opacity:0.84;}.cls-156,.cls-51{opacity:0.86;}.cls-157,.cls-52{opacity:0.88;}.cls-158,.cls-53{opacity:0.9;}.cls-159,.cls-54{opacity:0.92;}.cls-160,.cls-55{opacity:0.94;}.cls-161,.cls-56{opacity:0.96;}.cls-162,.cls-57{opacity:0.98;}.cls-110,.cls-58{mix-blend-mode:soft-light;}.cls-59{opacity:0.98;}.cls-60{opacity:0.96;}.cls-61{opacity:0.94;}.cls-62{opacity:0.92;}.cls-63{opacity:0.9;}.cls-64{opacity:0.88;}.cls-65{opacity:0.86;}.cls-66{opacity:0.84;}.cls-67{opacity:0.82;}.cls-68{opacity:0.8;}.cls-69{opacity:0.78;}.cls-70{opacity:0.76;}.cls-71{opacity:0.75;}.cls-72{opacity:0.73;}.cls-73{opacity:0.71;}.cls-74{opacity:0.69;}.cls-75{opacity:0.67;}.cls-76{opacity:0.65;}.cls-77{opacity:0.63;}.cls-78{opacity:0.61;}.cls-79{opacity:0.59;}.cls-80{opacity:0.57;}.cls-81{opacity:0.55;}.cls-82{opacity:0.53;}.cls-83{opacity:0.51;}.cls-84{opacity:0.49;}.cls-85{opacity:0.47;}.cls-86{opacity:0.45;}.cls-87{opacity:0.43;}.cls-88{opacity:0.41;}.cls-89{opacity:0.39;}.cls-90{opacity:0.37;}.cls-91{opacity:0.35;}.cls-92{opacity:0.33;}.cls-93{opacity:0.31;}.cls-94{opacity:0.29;}.cls-95{opacity:0.27;}.cls-96{opacity:0.25;}.cls-97{opacity:0.24;}.cls-98{opacity:0.22;}.cls-99{opacity:0.2;}.cls-100{opacity:0.18;}.cls-101{opacity:0.16;}.cls-102{opacity:0.14;}.cls-103{opacity:0.12;}.cls-104{opacity:0.1;}.cls-105{opacity:0.08;}.cls-106{opacity:0.06;}.cls-107{opacity:0.04;}.cls-108{opacity:0.02;}.cls-110{opacity:0.72;}.cls-111{opacity:0.19;}.cls-112,.cls-113,.cls-114,.cls-115,.cls-116,.cls-117,.cls-118,.cls-119,.cls-120,.cls-121,.cls-122,.cls-123,.cls-124,.cls-125,.cls-126,.cls-127,.cls-128,.cls-129,.cls-130,.cls-131,.cls-132,.cls-133,.cls-134,.cls-135,.cls-136,.cls-137,.cls-138,.cls-139,.cls-140,.cls-141,.cls-142,.cls-143,.cls-144,.cls-145,.cls-146,.cls-147,.cls-148,.cls-149,.cls-150,.cls-151,.cls-152,.cls-153,.cls-154,.cls-155,.cls-156,.cls-157,.cls-158,.cls-159,.cls-160,.cls-161,.cls-162,.cls-163{fill:url(#New_Pattern_2);}</style><pattern id="New_Pattern" data-name="New Pattern" width="15" height="15" patternUnits="userSpaceOnUse" viewBox="0 0 15 15"><rect class="cls-1" width="15" height="15"/><circle class="cls-2" cx="7.5" cy="7.5" r="1.8"/></pattern><pattern id="New_Pattern_2" data-name="New Pattern 2" width="30" height="30" patternUnits="userSpaceOnUse" viewBox="0 0 30 30"><rect class="cls-1" width="30" height="30"/><circle class="cls-3" cx="15" cy="15" r="5.4"/></pattern></defs><g class="cls-4"><g id="Layer_2" data-name="Layer 2"><g id="Layer_1-2" data-name="Layer 1"><g class="cls-5"><g class="cls-6"><circle class="cls-7" cx="570.37" cy="570.37" r="570.37"/></g><g class="cls-8"><circle class="cls-7" cx="570.37" cy="570.37" r="567.5"/></g><g class="cls-9"><circle class="cls-7" cx="570.37" cy="570.37" r="564.63"/></g><g class="cls-10"><circle class="cls-7" cx="570.37" cy="570.37" r="561.76"/></g><g class="cls-11"><circle class="cls-7" cx="570.37" cy="570.37" r="558.89"/></g><g class="cls-12"><circle class="cls-7" cx="570.37" cy="570.37" r="556.01"/></g><g class="cls-13"><circle class="cls-7" cx="570.37" cy="570.37" r="553.14"/></g><g class="cls-14"><circle class="cls-7" cx="570.37" cy="570.37" r="550.27"/></g><g class="cls-15"><circle class="cls-7" cx="570.37" cy="570.37" r="547.4"/></g><g class="cls-16"><circle class="cls-7" cx="570.37" cy="570.37" r="544.53"/></g><g class="cls-17"><circle class="cls-7" cx="570.37" cy="570.37" r="541.66"/></g><g class="cls-18"><circle class="cls-7" cx="570.37" cy="570.37" r="538.79"/></g><g class="cls-19"><circle class="cls-7" cx="570.37" cy="570.37" r="535.92"/></g><g class="cls-20"><circle class="cls-7" cx="570.37" cy="570.37" r="533.05"/></g><g class="cls-21"><circle class="cls-7" cx="570.37" cy="570.37" r="530.18"/></g><g class="cls-22"><circle class="cls-7" cx="570.37" cy="570.37" r="527.31"/></g><g class="cls-23"><circle class="cls-7" cx="570.37" cy="570.37" r="524.44"/></g><g class="cls-24"><circle class="cls-7" cx="570.37" cy="570.37" r="521.56"/></g><g class="cls-25"><circle class="cls-7" cx="570.37" cy="570.37" r="518.69"/></g><g class="cls-26"><circle class="cls-7" cx="570.37" cy="570.37" r="515.82"/></g><g class="cls-27"><circle class="cls-7" cx="570.37" cy="570.37" r="512.95"/></g><g class="cls-28"><circle class="cls-7" cx="570.37" cy="570.37" r="510.08"/></g><g class="cls-29"><circle class="cls-7" cx="570.37" cy="570.37" r="507.21"/></g><g class="cls-30"><circle class="cls-7" cx="570.37" cy="570.37" r="504.34"/></g><g class="cls-31"><circle class="cls-7" cx="570.37" cy="570.37" r="501.47"/></g><g class="cls-32"><circle class="cls-7" cx="570.37" cy="570.37" r="498.6"/></g><g class="cls-33"><circle class="cls-7" cx="570.37" cy="570.37" r="495.73"/></g><g class="cls-34"><circle class="cls-7" cx="570.37" cy="570.37" r="492.86"/></g><g class="cls-35"><circle class="cls-7" cx="570.37" cy="570.37" r="489.99"/></g><g class="cls-36"><circle class="cls-7" cx="570.37" cy="570.37" r="487.11"/></g><g class="cls-37"><circle class="cls-7" cx="570.37" cy="570.37" r="484.24"/></g><g class="cls-38"><circle class="cls-7" cx="570.37" cy="570.37" r="481.37"/></g><g class="cls-39"><circle class="cls-7" cx="570.37" cy="570.37" r="478.5"/></g><g class="cls-40"><circle class="cls-7" cx="570.37" cy="570.37" r="475.63"/></g><g class="cls-41"><circle class="cls-7" cx="570.37" cy="570.37" r="472.76"/></g><g class="cls-42"><circle class="cls-7" cx="570.37" cy="570.37" r="469.89"/></g><g class="cls-43"><circle class="cls-7" cx="570.37" cy="570.37" r="467.02"/></g><g class="cls-44"><circle class="cls-7" cx="570.37" cy="570.37" r="464.15"/></g><g class="cls-45"><circle class="cls-7" cx="570.37" cy="570.37" r="461.28"/></g><g class="cls-46"><circle class="cls-7" cx="570.37" cy="570.37" r="458.41"/></g><g class="cls-47"><circle class="cls-7" cx="570.37" cy="570.37" r="455.54"/></g><g class="cls-48"><circle class="cls-7" cx="570.37" cy="570.37" r="452.66"/></g><g class="cls-49"><circle class="cls-7" cx="570.37" cy="570.37" r="449.79"/></g><g class="cls-50"><circle class="cls-7" cx="570.37" cy="570.37" r="446.92"/></g><g class="cls-51"><circle class="cls-7" cx="570.37" cy="570.37" r="444.05"/></g><g class="cls-52"><circle class="cls-7" cx="570.37" cy="570.37" r="441.18"/></g><g class="cls-53"><circle class="cls-7" cx="570.37" cy="570.37" r="438.31"/></g><g class="cls-54"><circle class="cls-7" cx="570.37" cy="570.37" r="435.44"/></g><g class="cls-55"><circle class="cls-7" cx="570.37" cy="570.37" r="432.57"/></g><g class="cls-56"><circle class="cls-7" cx="570.37" cy="570.37" r="429.7"/></g><g class="cls-57"><circle class="cls-7" cx="570.37" cy="570.37" r="426.83"/></g><circle class="cls-7" cx="570.37" cy="570.37" r="423.96"/></g><g class="cls-58"><circle class="cls-2" cx="247.98" cy="1081.27" r="109.8"/><circle class="cls-59" cx="257.9" cy="1072.76" r="109.8"/><circle class="cls-60" cx="267.82" cy="1064.26" r="109.8"/><circle class="cls-61" cx="277.73" cy="1055.75" r="109.8"/><circle class="cls-62" cx="287.65" cy="1047.25" r="109.8"/><circle class="cls-63" cx="297.57" cy="1038.74" r="109.8"/><circle class="cls-64" cx="307.49" cy="1030.23" r="109.8"/><circle class="cls-65" cx="317.4" cy="1021.73" r="109.8"/><circle class="cls-66" cx="327.32" cy="1013.22" r="109.8"/><circle class="cls-67" cx="337.24" cy="1004.72" r="109.8"/><circle class="cls-68" cx="347.16" cy="996.21" r="109.8"/><circle class="cls-69" cx="357.07" cy="987.7" r="109.8"/><circle class="cls-70" cx="366.99" cy="979.2" r="109.8"/><circle class="cls-71" cx="376.91" cy="970.69" r="109.8"/><circle class="cls-72" cx="386.83" cy="962.19" r="109.8"/><circle class="cls-73" cx="396.74" cy="953.68" r="109.8"/><circle class="cls-74" cx="406.66" cy="945.17" r="109.8"/><circle class="cls-75" cx="416.58" cy="936.67" r="109.8"/><circle class="cls-76" cx="426.5" cy="928.16" r="109.8"/><circle class="cls-77" cx="436.42" cy="919.66" r="109.8"/><circle class="cls-78" cx="446.33" cy="911.15" r="109.8"/><circle class="cls-79" cx="456.25" cy="902.65" r="109.8"/><circle class="cls-80" cx="466.17" cy="894.14" r="109.8"/><circle class="cls-81" cx="476.09" cy="885.63" r="109.8"/><circle class="cls-82" cx="486" cy="877.13" r="109.8"/><circle class="cls-83" cx="495.92" cy="868.62" r="109.8"/><circle class="cls-84" cx="505.84" cy="860.12" r="109.8"/><circle class="cls-85" cx="515.76" cy="851.61" r="109.8"/><circle class="cls-86" cx="525.67" cy="843.1" r="109.8"/><circle class="cls-87" cx="535.59" cy="834.6" r="109.8"/><circle class="cls-88" cx="545.51" cy="826.09" r="109.8"/><circle class="cls-89" cx="555.43" cy="817.59" r="109.8"/><circle class="cls-90" cx="565.34" cy="809.08" r="109.8"/><circle class="cls-91" cx="575.26" cy="800.57" r="109.8"/><circle class="cls-92" cx="585.18" cy="792.07" r="109.8"/><circle class="cls-93" cx="595.1" cy="783.56" r="109.8"/><circle class="cls-94" cx="605.02" cy="775.06" r="109.8"/><circle class="cls-95" cx="614.93" cy="766.55" r="109.8"/><circle class="cls-96" cx="624.85" cy="758.05" r="109.8"/><circle class="cls-97" cx="634.77" cy="749.54" r="109.8"/><circle class="cls-98" cx="644.69" cy="741.03" r="109.8"/><circle class="cls-99" cx="654.6" cy="732.53" r="109.8"/><circle class="cls-100" cx="664.52" cy="724.02" r="109.8"/><circle class="cls-101" cx="674.44" cy="715.52" r="109.8"/><circle class="cls-102" cx="684.36" cy="707.01" r="109.8"/><circle class="cls-103" cx="694.27" cy="698.5" r="109.8"/><circle class="cls-104" cx="704.19" cy="690" r="109.8"/><circle class="cls-105" cx="714.11" cy="681.49" r="109.8"/><circle class="cls-106" cx="724.03" cy="672.99" r="109.8"/><circle class="cls-107" cx="733.94" cy="664.48" r="109.8"/><circle class="cls-108" cx="743.86" cy="655.97" r="109.8"/><circle class="cls-109" cx="753.78" cy="647.47" r="109.8"/></g><g class="cls-58"><circle class="cls-2" cx="996.29" cy="215.53" r="81.69"/><circle class="cls-59" cx="988.91" cy="221.86" r="81.69"/><circle class="cls-60" cx="981.54" cy="228.19" r="81.69"/><circle class="cls-61" cx="974.16" cy="234.52" r="81.69"/><circle class="cls-62" cx="966.78" cy="240.85" r="81.69"/><circle class="cls-63" cx="959.4" cy="247.17" r="81.69"/><circle class="cls-64" cx="952.02" cy="253.5" r="81.69"/><circle class="cls-65" cx="944.64" cy="259.83" r="81.69"/><circle class="cls-66" cx="937.26" cy="266.16" r="81.69"/><circle class="cls-67" cx="929.89" cy="272.49" r="81.69"/><circle class="cls-68" cx="922.51" cy="278.81" r="81.69"/><circle class="cls-69" cx="915.13" cy="285.14" r="81.69"/><circle class="cls-70" cx="907.75" cy="291.47" r="81.69"/><circle class="cls-71" cx="900.37" cy="297.8" r="81.69"/><circle class="cls-72" cx="892.99" cy="304.13" r="81.69"/><circle class="cls-73" cx="885.62" cy="310.46" r="81.69"/><circle class="cls-74" cx="878.24" cy="316.78" r="81.69"/><circle class="cls-75" cx="870.86" cy="323.11" r="81.69"/><circle class="cls-76" cx="863.48" cy="329.44" r="81.69"/><circle class="cls-77" cx="856.1" cy="335.77" r="81.69"/><circle class="cls-78" cx="848.72" cy="342.1" r="81.69"/><circle class="cls-79" cx="841.35" cy="348.42" r="81.69"/><circle class="cls-80" cx="833.97" cy="354.75" r="81.69"/><circle class="cls-81" cx="826.59" cy="361.08" r="81.69"/><circle class="cls-82" cx="819.21" cy="367.41" r="81.69"/><circle class="cls-83" cx="811.83" cy="373.74" r="81.69"/><circle class="cls-84" cx="804.45" cy="380.06" r="81.69"/><circle class="cls-85" cx="797.07" cy="386.39" r="81.69"/><circle class="cls-86" cx="789.7" cy="392.72" r="81.69"/><circle class="cls-87" cx="782.32" cy="399.05" r="81.69"/><circle class="cls-88" cx="774.94" cy="405.38" r="81.69"/><circle class="cls-89" cx="767.56" cy="411.7" r="81.69"/><circle class="cls-90" cx="760.18" cy="418.03" r="81.69"/><circle class="cls-91" cx="752.8" cy="424.36" r="81.69"/><circle class="cls-92" cx="745.43" cy="430.69" r="81.69"/><circle class="cls-93" cx="738.05" cy="437.02" r="81.69"/><circle class="cls-94" cx="730.67" cy="443.35" r="81.69"/><circle class="cls-95" cx="723.29" cy="449.67" r="81.69"/><circle class="cls-96" cx="715.91" cy="456" r="81.69"/><circle class="cls-97" cx="708.53" cy="462.33" r="81.69"/><circle class="cls-98" cx="701.16" cy="468.66" r="81.69"/><circle class="cls-99" cx="693.78" cy="474.99" r="81.69"/><circle class="cls-100" cx="686.4" cy="481.31" r="81.69"/><circle class="cls-101" cx="679.02" cy="487.64" r="81.69"/><circle class="cls-102" cx="671.64" cy="493.97" r="81.69"/><circle class="cls-103" cx="664.26" cy="500.3" r="81.69"/><circle class="cls-104" cx="656.88" cy="506.63" r="81.69"/><circle class="cls-105" cx="649.51" cy="512.95" r="81.69"/><circle class="cls-106" cx="642.13" cy="519.28" r="81.69"/><circle class="cls-107" cx="634.75" cy="525.61" r="81.69"/><circle class="cls-108" cx="627.37" cy="531.94" r="81.69"/><circle class="cls-109" cx="619.99" cy="538.27" r="81.69"/></g><g class="cls-58"><circle class="cls-2" cx="1757.58" cy="1429.27" r="109.8"/><circle class="cls-59" cx="1767.5" cy="1420.76" r="109.8"/><circle class="cls-60" cx="1777.42" cy="1412.26" r="109.8"/><circle class="cls-61" cx="1787.33" cy="1403.75" r="109.8"/><circle class="cls-62" cx="1797.25" cy="1395.25" r="109.8"/><circle class="cls-63" cx="1807.17" cy="1386.74" r="109.8"/><circle class="cls-64" cx="1817.09" cy="1378.23" r="109.8"/><circle class="cls-65" cx="1827" cy="1369.73" r="109.8"/><circle class="cls-66" cx="1836.92" cy="1361.22" r="109.8"/><circle class="cls-67" cx="1846.84" cy="1352.72" r="109.8"/><circle class="cls-68" cx="1856.76" cy="1344.21" r="109.8"/><circle class="cls-69" cx="1866.67" cy="1335.7" r="109.8"/><circle class="cls-70" cx="1876.59" cy="1327.2" r="109.8"/><circle class="cls-71" cx="1886.51" cy="1318.69" r="109.8"/><circle class="cls-72" cx="1896.43" cy="1310.19" r="109.8"/><circle class="cls-73" cx="1906.34" cy="1301.68" r="109.8"/><circle class="cls-74" cx="1916.26" cy="1293.17" r="109.8"/><circle class="cls-75" cx="1926.18" cy="1284.67" r="109.8"/><circle class="cls-76" cx="1936.1" cy="1276.16" r="109.8"/><circle class="cls-77" cx="1946.02" cy="1267.66" r="109.8"/><circle class="cls-78" cx="1955.93" cy="1259.15" r="109.8"/><circle class="cls-79" cx="1965.85" cy="1250.65" r="109.8"/><circle class="cls-80" cx="1975.77" cy="1242.14" r="109.8"/><circle class="cls-81" cx="1985.69" cy="1233.63" r="109.8"/><circle class="cls-82" cx="1995.6" cy="1225.13" r="109.8"/><circle class="cls-83" cx="2005.52" cy="1216.62" r="109.8"/><circle class="cls-84" cx="2015.44" cy="1208.12" r="109.8"/><circle class="cls-85" cx="2025.36" cy="1199.61" r="109.8"/><circle class="cls-86" cx="2035.27" cy="1191.1" r="109.8"/><circle class="cls-87" cx="2045.19" cy="1182.6" r="109.8"/><circle class="cls-88" cx="2055.11" cy="1174.09" r="109.8"/><circle class="cls-89" cx="2065.03" cy="1165.59" r="109.8"/><circle class="cls-90" cx="2074.94" cy="1157.08" r="109.8"/><circle class="cls-91" cx="2084.86" cy="1148.57" r="109.8"/><circle class="cls-92" cx="2094.78" cy="1140.07" r="109.8"/><circle class="cls-93" cx="2104.7" cy="1131.56" r="109.8"/><circle class="cls-94" cx="2114.62" cy="1123.06" r="109.8"/><circle class="cls-95" cx="2124.53" cy="1114.55" r="109.8"/><circle class="cls-96" cx="2134.45" cy="1106.05" r="109.8"/><circle class="cls-97" cx="2144.37" cy="1097.54" r="109.8"/><circle class="cls-98" cx="2154.29" cy="1089.03" r="109.8"/><circle class="cls-99" cx="2164.2" cy="1080.53" r="109.8"/><circle class="cls-100" cx="2174.12" cy="1072.02" r="109.8"/><circle class="cls-101" cx="2184.04" cy="1063.52" r="109.8"/><circle class="cls-102" cx="2193.96" cy="1055.01" r="109.8"/><circle class="cls-103" cx="2203.87" cy="1046.5" r="109.8"/><circle class="cls-104" cx="2213.79" cy="1038" r="109.8"/><circle class="cls-105" cx="2223.71" cy="1029.49" r="109.8"/><circle class="cls-106" cx="2233.63" cy="1020.99" r="109.8"/><circle class="cls-107" cx="2243.54" cy="1012.48" r="109.8"/><circle class="cls-108" cx="2253.46" cy="1003.97" r="109.8"/><circle class="cls-109" cx="2263.38" cy="995.47" r="109.8"/></g><g class="cls-110"><circle class="cls-2" cx="1789.57" cy="1080.46" r="109.8"/><circle class="cls-59" cx="1799.49" cy="1071.95" r="109.8"/><circle class="cls-60" cx="1809.41" cy="1063.45" r="109.8"/><circle class="cls-61" cx="1819.33" cy="1054.94" r="109.8"/><circle class="cls-62" cx="1829.25" cy="1046.44" r="109.8"/><circle class="cls-63" cx="1839.16" cy="1037.93" r="109.8"/><circle class="cls-64" cx="1849.08" cy="1029.43" r="109.8"/><circle class="cls-65" cx="1859" cy="1020.92" r="109.8"/><circle class="cls-66" cx="1868.92" cy="1012.41" r="109.8"/><circle class="cls-67" cx="1878.83" cy="1003.91" r="109.8"/><circle class="cls-68" cx="1888.75" cy="995.4" r="109.8"/><circle class="cls-69" cx="1898.67" cy="986.9" r="109.8"/><circle class="cls-70" cx="1908.59" cy="978.39" r="109.8"/><circle class="cls-71" cx="1918.5" cy="969.88" r="109.8"/><circle class="cls-72" cx="1928.42" cy="961.38" r="109.8"/><circle class="cls-73" cx="1938.34" cy="952.87" r="109.8"/><circle class="cls-74" cx="1948.26" cy="944.37" r="109.8"/><circle class="cls-75" cx="1958.17" cy="935.86" r="109.8"/><circle class="cls-76" cx="1968.09" cy="927.35" r="109.8"/><circle class="cls-77" cx="1978.01" cy="918.85" r="109.8"/><circle class="cls-78" cx="1987.93" cy="910.34" r="109.8"/><circle class="cls-79" cx="1997.85" cy="901.84" r="109.8"/><circle class="cls-80" cx="2007.76" cy="893.33" r="109.8"/><circle class="cls-81" cx="2017.68" cy="884.83" r="109.8"/><circle class="cls-82" cx="2027.6" cy="876.32" r="109.8"/><circle class="cls-83" cx="2037.52" cy="867.81" r="109.8"/><circle class="cls-84" cx="2047.43" cy="859.31" r="109.8"/><circle class="cls-85" cx="2057.35" cy="850.8" r="109.8"/><circle class="cls-86" cx="2067.27" cy="842.3" r="109.8"/><circle class="cls-87" cx="2077.19" cy="833.79" r="109.8"/><circle class="cls-88" cx="2087.1" cy="825.28" r="109.8"/><circle class="cls-89" cx="2097.02" cy="816.78" r="109.8"/><circle class="cls-90" cx="2106.94" cy="808.27" r="109.8"/><circle class="cls-91" cx="2116.86" cy="799.77" r="109.8"/><circle class="cls-92" cx="2126.77" cy="791.26" r="109.8"/><circle class="cls-93" cx="2136.69" cy="782.75" r="109.8"/><circle class="cls-94" cx="2146.61" cy="774.25" r="109.8"/><circle class="cls-95" cx="2156.53" cy="765.74" r="109.8"/><circle class="cls-96" cx="2166.45" cy="757.24" r="109.8"/><circle class="cls-97" cx="2176.36" cy="748.73" r="109.8"/><circle class="cls-98" cx="2186.28" cy="740.23" r="109.8"/><circle class="cls-99" cx="2196.2" cy="731.72" r="109.8"/><circle class="cls-100" cx="2206.12" cy="723.21" r="109.8"/><circle class="cls-101" cx="2216.03" cy="714.71" r="109.8"/><circle class="cls-102" cx="2225.95" cy="706.2" r="109.8"/><circle class="cls-103" cx="2235.87" cy="697.7" r="109.8"/><circle class="cls-104" cx="2245.79" cy="689.19" r="109.8"/><circle class="cls-105" cx="2255.7" cy="680.68" r="109.8"/><circle class="cls-106" cx="2265.62" cy="672.18" r="109.8"/><circle class="cls-107" cx="2275.54" cy="663.67" r="109.8"/><circle class="cls-108" cx="2285.46" cy="655.17" r="109.8"/><circle class="cls-109" cx="2295.37" cy="646.66" r="109.8"/></g><g class="cls-111"><circle class="cls-112" cx="1790.88" cy="940.47" r="402.8"/><circle class="cls-113" cx="1790.88" cy="940.47" r="400.41"/><circle class="cls-114" cx="1790.88" cy="940.47" r="398.02"/><circle class="cls-115" cx="1790.88" cy="940.47" r="395.62"/><circle class="cls-116" cx="1790.88" cy="940.47" r="393.23"/><circle class="cls-117" cx="1790.88" cy="940.47" r="390.84"/><circle class="cls-118" cx="1790.88" cy="940.47" r="388.45"/><circle class="cls-119" cx="1790.88" cy="940.47" r="386.05"/><circle class="cls-120" cx="1790.88" cy="940.47" r="383.66"/><circle class="cls-121" cx="1790.88" cy="940.47" r="381.27"/><circle class="cls-122" cx="1790.88" cy="940.47" r="378.88"/><circle class="cls-123" cx="1790.88" cy="940.47" r="376.49"/><circle class="cls-124" cx="1790.88" cy="940.47" r="374.09"/><circle class="cls-125" cx="1790.88" cy="940.47" r="371.7"/><circle class="cls-126" cx="1790.88" cy="940.47" r="369.31"/><circle class="cls-127" cx="1790.88" cy="940.47" r="366.92"/><circle class="cls-128" cx="1790.88" cy="940.47" r="364.53"/><circle class="cls-129" cx="1790.88" cy="940.47" r="362.13"/><circle class="cls-130" cx="1790.88" cy="940.47" r="359.74"/><circle class="cls-131" cx="1790.88" cy="940.47" r="357.35"/><circle class="cls-132" cx="1790.88" cy="940.47" r="354.96"/><circle class="cls-133" cx="1790.88" cy="940.47" r="352.56"/><circle class="cls-134" cx="1790.88" cy="940.47" r="350.17"/><circle class="cls-135" cx="1790.88" cy="940.47" r="347.78"/><circle class="cls-136" cx="1790.88" cy="940.47" r="345.39"/><circle class="cls-137" cx="1790.88" cy="940.47" r="343"/><circle class="cls-138" cx="1790.88" cy="940.47" r="340.6"/><circle class="cls-139" cx="1790.88" cy="940.47" r="338.21"/><circle class="cls-140" cx="1790.88" cy="940.47" r="335.82"/><circle class="cls-141" cx="1790.88" cy="940.47" r="333.43"/><circle class="cls-142" cx="1790.88" cy="940.47" r="331.04"/><circle class="cls-143" cx="1790.88" cy="940.47" r="328.64"/><circle class="cls-144" cx="1790.88" cy="940.47" r="326.25"/><circle class="cls-145" cx="1790.88" cy="940.47" r="323.86"/><circle class="cls-146" cx="1790.88" cy="940.47" r="321.47"/><circle class="cls-147" cx="1790.88" cy="940.47" r="319.07"/><circle class="cls-148" cx="1790.88" cy="940.47" r="316.68"/><circle class="cls-149" cx="1790.88" cy="940.47" r="314.29"/><circle class="cls-150" cx="1790.88" cy="940.47" r="311.9"/><circle class="cls-151" cx="1790.88" cy="940.47" r="309.51"/><circle class="cls-152" cx="1790.88" cy="940.47" r="307.11"/><circle class="cls-153" cx="1790.88" cy="940.47" r="304.72"/><circle class="cls-154" cx="1790.88" cy="940.47" r="302.33"/><circle class="cls-155" cx="1790.88" cy="940.47" r="299.94"/><circle class="cls-156" cx="1790.88" cy="940.47" r="297.55"/><circle class="cls-157" cx="1790.88" cy="940.47" r="295.15"/><circle class="cls-158" cx="1790.88" cy="940.47" r="292.76"/><circle class="cls-159" cx="1790.88" cy="940.47" r="290.37"/><circle class="cls-160" cx="1790.88" cy="940.47" r="287.98"/><circle class="cls-161" cx="1790.88" cy="940.47" r="285.58"/><circle class="cls-162" cx="1790.88" cy="940.47" r="283.19"/><circle class="cls-163" cx="1790.88" cy="940.47" r="280.8"/></g><g class="cls-110"><ellipse class="cls-2" cx="1084.94" cy="413.03" rx="15.6" ry="15.55"/><ellipse class="cls-59" cx="1078.75" cy="418.32" rx="15.6" ry="15.55"/><ellipse class="cls-60" cx="1072.57" cy="423.61" rx="15.6" ry="15.55"/><ellipse class="cls-61" cx="1066.38" cy="428.91" rx="15.6" ry="15.55"/><ellipse class="cls-62" cx="1060.19" cy="434.2" rx="15.6" ry="15.55"/><ellipse class="cls-63" cx="1054" cy="439.49" rx="15.6" ry="15.55"/><ellipse class="cls-64" cx="1047.82" cy="444.78" rx="15.6" ry="15.55"/><ellipse class="cls-65" cx="1041.63" cy="450.07" rx="15.6" ry="15.55"/><ellipse class="cls-66" cx="1035.44" cy="455.36" rx="15.6" ry="15.55"/><ellipse class="cls-67" cx="1029.25" cy="460.65" rx="15.6" ry="15.55"/><ellipse class="cls-68" cx="1023.07" cy="465.94" rx="15.6" ry="15.55"/><ellipse class="cls-69" cx="1016.88" cy="471.24" rx="15.6" ry="15.55"/><ellipse class="cls-70" cx="1010.69" cy="476.53" rx="15.6" ry="15.55"/><ellipse class="cls-71" cx="1004.5" cy="481.82" rx="15.6" ry="15.55"/><ellipse class="cls-72" cx="998.32" cy="487.11" rx="15.6" ry="15.55"/><ellipse class="cls-73" cx="992.13" cy="492.4" rx="15.6" ry="15.55"/><ellipse class="cls-74" cx="985.94" cy="497.69" rx="15.6" ry="15.55"/><ellipse class="cls-75" cx="979.75" cy="502.98" rx="15.6" ry="15.55"/><ellipse class="cls-76" cx="973.57" cy="508.27" rx="15.6" ry="15.55"/><ellipse class="cls-77" cx="967.38" cy="513.57" rx="15.6" ry="15.55"/><ellipse class="cls-78" cx="961.19" cy="518.86" rx="15.6" ry="15.55"/><ellipse class="cls-79" cx="955" cy="524.15" rx="15.6" ry="15.55"/><ellipse class="cls-80" cx="948.82" cy="529.44" rx="15.6" ry="15.55"/><ellipse class="cls-81" cx="942.63" cy="534.73" rx="15.6" ry="15.55"/><ellipse class="cls-82" cx="936.44" cy="540.02" rx="15.6" ry="15.55"/><ellipse class="cls-83" cx="930.25" cy="545.31" rx="15.6" ry="15.55"/><ellipse class="cls-84" cx="924.07" cy="550.6" rx="15.6" ry="15.55"/><ellipse class="cls-85" cx="917.88" cy="555.9" rx="15.6" ry="15.55"/><ellipse class="cls-86" cx="911.69" cy="561.19" rx="15.6" ry="15.55"/><ellipse class="cls-87" cx="905.5" cy="566.48" rx="15.6" ry="15.55"/><ellipse class="cls-88" cx="899.32" cy="571.77" rx="15.6" ry="15.55"/><ellipse class="cls-89" cx="893.13" cy="577.06" rx="15.6" ry="15.55"/><ellipse class="cls-90" cx="886.94" cy="582.35" rx="15.6" ry="15.55"/><ellipse class="cls-91" cx="880.75" cy="587.64" rx="15.6" ry="15.55"/><ellipse class="cls-92" cx="874.57" cy="592.93" rx="15.6" ry="15.55"/><ellipse class="cls-93" cx="868.38" cy="598.23" rx="15.6" ry="15.55"/><ellipse class="cls-94" cx="862.19" cy="603.52" rx="15.6" ry="15.55"/><ellipse class="cls-95" cx="856" cy="608.81" rx="15.6" ry="15.55"/><ellipse class="cls-96" cx="849.82" cy="614.1" rx="15.6" ry="15.55"/><ellipse class="cls-97" cx="843.63" cy="619.39" rx="15.6" ry="15.55"/><ellipse class="cls-98" cx="837.44" cy="624.68" rx="15.6" ry="15.55"/><ellipse class="cls-99" cx="831.25" cy="629.97" rx="15.6" ry="15.55"/><ellipse class="cls-100" cx="825.07" cy="635.26" rx="15.6" ry="15.55"/><ellipse class="cls-101" cx="818.88" cy="640.56" rx="15.6" ry="15.55"/><ellipse class="cls-102" cx="812.69" cy="645.85" rx="15.6" ry="15.55"/><ellipse class="cls-103" cx="806.5" cy="651.14" rx="15.6" ry="15.55"/><ellipse class="cls-104" cx="800.32" cy="656.43" rx="15.6" ry="15.55"/><ellipse class="cls-105" cx="794.13" cy="661.72" rx="15.6" ry="15.55"/><ellipse class="cls-106" cx="787.94" cy="667.01" rx="15.6" ry="15.55"/><ellipse class="cls-107" cx="781.75" cy="672.3" rx="15.6" ry="15.55"/><ellipse class="cls-108" cx="775.56" cy="677.59" rx="15.6" ry="15.55"/><ellipse class="cls-109" cx="769.38" cy="682.89" rx="15.6" ry="15.55"/></g><g class="cls-110"><circle class="cls-2" cx="1127.4" cy="1290.76" r="25"/><circle class="cls-59" cx="1117.49" cy="1299.26" r="25"/><circle class="cls-60" cx="1107.57" cy="1307.77" r="25"/><circle class="cls-61" cx="1097.65" cy="1316.27" r="25"/><circle class="cls-62" cx="1087.73" cy="1324.78" r="25"/><circle class="cls-63" cx="1077.82" cy="1333.28" r="25"/><circle class="cls-64" cx="1067.9" cy="1341.79" r="25"/><circle class="cls-65" cx="1057.98" cy="1350.3" r="25"/><circle class="cls-66" cx="1048.06" cy="1358.8" r="25"/><circle class="cls-67" cx="1038.15" cy="1367.31" r="25"/><circle class="cls-68" cx="1028.23" cy="1375.81" r="25"/><circle class="cls-69" cx="1018.31" cy="1384.32" r="25"/><circle class="cls-70" cx="1008.39" cy="1392.83" r="25"/><circle class="cls-71" cx="998.48" cy="1401.33" r="25"/><circle class="cls-72" cx="988.56" cy="1409.84" r="25"/><circle class="cls-73" cx="978.64" cy="1418.34" r="25"/><circle class="cls-74" cx="968.72" cy="1426.85" r="25"/><circle class="cls-75" cx="958.8" cy="1435.36" r="25"/><circle class="cls-76" cx="948.89" cy="1443.86" r="25"/><circle class="cls-77" cx="938.97" cy="1452.37" r="25"/><circle class="cls-78" cx="929.05" cy="1460.87" r="25"/><circle class="cls-79" cx="919.13" cy="1469.38" r="25"/><circle class="cls-80" cx="909.22" cy="1477.88" r="25"/><circle class="cls-81" cx="899.3" cy="1486.39" r="25"/><circle class="cls-82" cx="889.38" cy="1494.9" r="25"/><circle class="cls-83" cx="879.46" cy="1503.4" r="25"/><circle class="cls-84" cx="869.55" cy="1511.91" r="25"/><circle class="cls-85" cx="859.63" cy="1520.41" r="25"/><circle class="cls-86" cx="849.71" cy="1528.92" r="25"/><circle class="cls-87" cx="839.79" cy="1537.43" r="25"/><circle class="cls-88" cx="829.88" cy="1545.93" r="25"/><circle class="cls-89" cx="819.96" cy="1554.44" r="25"/><circle class="cls-90" cx="810.04" cy="1562.94" r="25"/><circle class="cls-91" cx="800.12" cy="1571.45" r="25"/><circle class="cls-92" cx="790.2" cy="1579.96" r="25"/><circle class="cls-93" cx="780.29" cy="1588.46" r="25"/><circle class="cls-94" cx="770.37" cy="1596.97" r="25"/><circle class="cls-95" cx="760.45" cy="1605.47" r="25"/><circle class="cls-96" cx="750.53" cy="1613.98" r="25"/><circle class="cls-97" cx="740.62" cy="1622.48" r="25"/><circle class="cls-98" cx="730.7" cy="1630.99" r="25"/><circle class="cls-99" cx="720.78" cy="1639.5" r="25"/><circle class="cls-100" cx="710.86" cy="1648" r="25"/><circle class="cls-101" cx="700.95" cy="1656.51" r="25"/><circle class="cls-102" cx="691.03" cy="1665.01" r="25"/><circle class="cls-103" cx="681.11" cy="1673.52" r="25"/><circle class="cls-104" cx="671.19" cy="1682.03" r="25"/><circle class="cls-105" cx="661.28" cy="1690.53" r="25"/><circle class="cls-106" cx="651.36" cy="1699.04" r="25"/><circle class="cls-107" cx="641.44" cy="1707.54" r="25"/><circle class="cls-108" cx="631.52" cy="1716.05" r="25"/><circle class="cls-109" cx="621.6" cy="1724.56" r="25"/></g><g class="cls-110"><circle class="cls-2" cx="1958.91" cy="881" r="17.44"/><circle class="cls-59" cx="1951.99" cy="886.94" r="17.44"/><circle class="cls-60" cx="1945.07" cy="892.87" r="17.44"/><circle class="cls-61" cx="1938.16" cy="898.8" r="17.44"/><circle class="cls-62" cx="1931.24" cy="904.74" r="17.44"/><circle class="cls-63" cx="1924.32" cy="910.67" r="17.44"/><circle class="cls-64" cx="1917.4" cy="916.6" r="17.44"/><circle class="cls-65" cx="1910.48" cy="922.54" r="17.44"/><circle class="cls-66" cx="1903.56" cy="928.47" r="17.44"/><circle class="cls-67" cx="1896.64" cy="934.41" r="17.44"/><circle class="cls-68" cx="1889.72" cy="940.34" r="17.44"/><circle class="cls-69" cx="1882.81" cy="946.27" r="17.44"/><circle class="cls-70" cx="1875.89" cy="952.21" r="17.44"/><circle class="cls-71" cx="1868.97" cy="958.14" r="17.44"/><circle class="cls-72" cx="1862.05" cy="964.08" r="17.44"/><circle class="cls-73" cx="1855.13" cy="970.01" r="17.44"/><circle class="cls-74" cx="1848.21" cy="975.94" r="17.44"/><circle class="cls-75" cx="1841.29" cy="981.88" r="17.44"/><circle class="cls-76" cx="1834.37" cy="987.81" r="17.44"/><circle class="cls-77" cx="1827.45" cy="993.75" r="17.44"/><circle class="cls-78" cx="1820.54" cy="999.68" r="17.44"/><circle class="cls-79" cx="1813.62" cy="1005.61" r="17.44"/><circle class="cls-80" cx="1806.7" cy="1011.55" r="17.44"/><circle class="cls-81" cx="1799.78" cy="1017.48" r="17.44"/><circle class="cls-82" cx="1792.86" cy="1023.41" r="17.44"/><circle class="cls-83" cx="1785.94" cy="1029.35" r="17.44"/><circle class="cls-84" cx="1779.02" cy="1035.28" r="17.44"/><circle class="cls-85" cx="1772.1" cy="1041.22" r="17.44"/><circle class="cls-86" cx="1765.19" cy="1047.15" r="17.44"/><circle class="cls-87" cx="1758.27" cy="1053.08" r="17.44"/><circle class="cls-88" cx="1751.35" cy="1059.02" r="17.44"/><circle class="cls-89" cx="1744.43" cy="1064.95" r="17.44"/><circle class="cls-90" cx="1737.51" cy="1070.89" r="17.44"/><circle class="cls-91" cx="1730.59" cy="1076.82" r="17.44"/><circle class="cls-92" cx="1723.67" cy="1082.75" r="17.44"/><circle class="cls-93" cx="1716.75" cy="1088.69" r="17.44"/><circle class="cls-94" cx="1709.84" cy="1094.62" r="17.44"/><circle class="cls-95" cx="1702.92" cy="1100.56" r="17.44"/><circle class="cls-96" cx="1696" cy="1106.49" r="17.44"/><circle class="cls-97" cx="1689.08" cy="1112.42" r="17.44"/><circle class="cls-98" cx="1682.16" cy="1118.36" r="17.44"/><circle class="cls-99" cx="1675.24" cy="1124.29" r="17.44"/><circle class="cls-100" cx="1668.32" cy="1130.22" r="17.44"/><circle class="cls-101" cx="1661.4" cy="1136.16" r="17.44"/><circle class="cls-102" cx="1654.49" cy="1142.09" r="17.44"/><circle class="cls-103" cx="1647.57" cy="1148.03" r="17.44"/><circle class="cls-104" cx="1640.65" cy="1153.96" r="17.44"/><circle class="cls-105" cx="1633.73" cy="1159.89" r="17.44"/><circle class="cls-106" cx="1626.81" cy="1165.83" r="17.44"/><circle class="cls-107" cx="1619.89" cy="1171.76" r="17.44"/><circle class="cls-108" cx="1612.97" cy="1177.7" r="17.44"/><circle class="cls-109" cx="1606.05" cy="1183.63" r="17.44"/></g></g></g></g></svg>