<svg width="70" height="75" viewBox="0 0 70 75" fill="none" xmlns="http://www.w3.org/2000/svg">
<path d="M35 0C15.6702 0 0 14.4946 0 32.374C0 45.5792 5.53071 51.8828 13.1053 57.6295L13.1417 57.6451V73.1421C13.1419 73.3069 13.1879 73.4685 13.2746 73.6087C13.3613 73.7489 13.4851 73.8623 13.6325 73.9362C13.7798 74.0102 13.9447 74.0417 14.1089 74.0274C14.2732 74.0131 14.4302 73.9535 14.5625 73.8552L27.8349 63.9969L28.1205 64.1209C30.3898 64.5387 32.6925 64.7485 35 64.7477C54.3302 64.7477 70 50.2532 70 32.374C70 14.4949 54.3302 0 35 0ZM23.2676 40.5776C26.6973 40.5776 29.6333 38.5238 30.5152 35.3508H35.5902C34.349 41.4574 29.5973 45.4593 23.2676 45.4593C15.9116 45.4593 10.0787 39.9735 10.0787 32.3374C10.0787 24.7013 15.9116 19.2157 23.2676 19.2157C29.6611 19.2157 34.4461 23.2978 35.6282 29.509H30.5685C29.7987 26.1319 26.7652 24.0272 23.2676 24.0272C18.3213 24.0272 15.0314 27.5558 15.0314 32.3374C15.0161 33.4234 15.2186 34.5015 15.627 35.5079C16.0354 36.5143 16.6415 37.4286 17.4093 38.1968C18.1771 38.965 19.0911 39.5715 20.0973 39.9804C21.1036 40.3893 22.1815 40.5924 23.2676 40.5776ZM56.7045 44.9558H52.054V34.4655C52.054 32.0497 50.6481 30.7519 48.485 30.7519C46.0699 30.7519 44.5197 32.2297 44.5197 35.2217V44.9558H39.8675V19.2972H44.5197V28.9491C45.6369 27.2549 47.4401 26.4256 49.8908 26.4256C51.8736 26.4256 53.4962 27.0742 54.7577 28.4081C56.0559 29.7423 56.7045 31.5448 56.7045 33.8879V44.9558Z" fill="#040404"/>
</svg>
