
<svg width="62" height="71" fill="#fff" xmlns="http://www.w3.org/2000/svg"><path d="M62 10.363c0 5.42-4.41 9.812-9.85 9.812-5.44 0-9.85-4.393-9.85-9.812 0-5.418 4.41-9.812 9.85-9.812C57.59.55 62 4.945 62 10.363ZM26.209 18.783C11.734 18.783 0 30.473 0 44.892 0 59.312 11.734 71 26.209 71c14.474 0 26.208-11.689 26.208-26.108 0-14.42-11.734-26.109-26.208-26.109Zm0 14.712c6.308 0 11.441 5.112 11.441 11.397 0 6.284-5.133 11.397-11.441 11.397-6.31 0-11.441-5.113-11.441-11.397 0-6.285 5.132-11.397 11.44-11.397Z" /></svg>