<svg width="57" height="58" viewBox="0 0 57 58" fill="none" xmlns="http://www.w3.org/2000/svg">
<path d="M28.5027 0.536133C20.7624 0.536133 19.791 0.569955 16.7508 0.708048C13.7168 0.847002 11.6459 1.32699 9.83366 2.03124C7.95939 2.75854 6.36906 3.73165 4.78498 5.3153C3.19961 6.89809 2.22585 8.48712 1.49554 10.3597C0.788916 12.171 0.308069 14.2411 0.171485 17.2716C0.0355465 20.3094 0 21.2808 0 29.0153C0 36.7496 0.0344693 37.7173 0.172131 40.7551C0.311732 43.7869 0.791932 45.8566 1.49618 47.6673C2.22478 49.5403 3.19853 51.1293 4.78326 52.7123C6.36669 54.2964 7.95681 55.2716 9.83021 55.9992C11.6435 56.7036 13.7151 57.1834 16.7486 57.3224C19.7886 57.4604 20.7593 57.4943 28.499 57.4943C36.2397 57.4943 37.2083 57.4604 40.2483 57.3224C43.2824 57.1834 45.3558 56.7034 47.1691 55.9992C49.0429 55.2719 50.6307 54.2964 52.2143 52.7123C53.7997 51.1293 54.7734 49.5403 55.5037 47.6679C56.2043 45.8566 56.6852 43.7865 56.8278 40.7558C56.9644 37.7182 56.9999 36.7496 56.9999 29.0153C56.9999 21.2808 56.9644 20.3101 56.8276 17.2723C56.6854 14.2405 56.2043 12.1708 55.5037 10.3601C54.7734 8.48712 53.7997 6.89809 52.2141 5.3153C50.6289 3.731 49.0436 2.75811 47.1673 2.03124C45.3504 1.32677 43.2781 0.847002 40.2442 0.708048C37.204 0.569955 36.2363 0.536133 28.4936 0.536133H28.5027ZM25.9459 5.66818C26.7047 5.6671 27.5513 5.66818 28.5027 5.66818C36.1122 5.66818 37.014 5.69554 40.0191 5.83191C42.7979 5.95901 44.3062 6.42284 45.3107 6.81277C46.6406 7.32895 47.589 7.94595 48.5858 8.94276C49.5832 9.93957 50.2009 10.8888 50.7185 12.2178C51.1085 13.2206 51.5736 14.7276 51.7001 17.5045C51.8366 20.5066 51.8664 21.4082 51.8664 29.0086C51.8664 36.6091 51.8366 37.5109 51.7001 40.513C51.573 43.2899 51.1087 44.7969 50.7185 45.7997C50.2019 47.1285 49.5832 48.0749 48.5858 49.071C47.5883 50.0679 46.6413 50.6849 45.3105 51.201C44.3073 51.5927 42.7979 52.0554 40.0191 52.1823C37.0146 52.3189 36.1122 52.3484 28.5027 52.3484C20.8925 52.3484 19.9905 52.3189 16.986 52.1826C14.2074 52.0542 12.6991 51.5901 11.6939 51.2004C10.3638 50.6842 9.41399 50.0672 8.41632 49.0704C7.41887 48.0736 6.80144 47.1268 6.28354 45.7971C5.8936 44.7945 5.4287 43.2873 5.30224 40.5106C5.16565 37.5085 5.13829 36.6067 5.13829 29.0015C5.13829 21.3965 5.16565 20.4995 5.30202 17.4972C5.42913 14.7205 5.8936 13.2135 6.28354 12.2096C6.80015 10.8804 7.41887 9.93117 8.41632 8.93436C9.41378 7.93777 10.3638 7.32077 11.6939 6.8033C12.6985 6.41164 14.2074 5.94889 16.986 5.82135C19.6152 5.70286 20.6342 5.6671 25.9459 5.66107V5.66818ZM43.7159 10.3969C41.8276 10.3969 40.2957 11.9259 40.2957 13.8133C40.2957 15.7 41.8276 17.2307 43.7159 17.2307C45.6039 17.2307 47.1359 15.7 47.1359 13.8133C47.1359 11.9265 45.6039 10.3959 43.7159 10.3959V10.3969ZM28.5027 14.39C20.4196 14.39 13.8666 20.9385 13.8666 29.0153C13.8666 37.0919 20.4198 43.6374 28.5027 43.6374C36.5855 43.6374 43.1364 37.0921 43.1364 29.0153C43.1364 20.9385 36.5848 14.39 28.502 14.39H28.5027ZM28.5027 19.5222C33.7491 19.5222 38.0026 23.7721 38.0026 29.0153C38.0026 34.2577 33.7491 38.5084 28.5027 38.5084C23.2556 38.5084 19.0025 34.2579 19.0025 29.0153C19.0025 23.7721 23.2556 19.5222 28.5027 19.5222Z" fill="url(#paint0_radial_26_77)"/>
<path d="M28.5027 0.536133C20.7624 0.536133 19.791 0.569955 16.7508 0.708048C13.7168 0.847002 11.6459 1.32699 9.83366 2.03124C7.95939 2.75854 6.36906 3.73165 4.78498 5.3153C3.19961 6.89809 2.22585 8.48712 1.49554 10.3597C0.788916 12.171 0.308069 14.2411 0.171485 17.2716C0.0355465 20.3094 0 21.2808 0 29.0153C0 36.7496 0.0344693 37.7173 0.172131 40.7551C0.311732 43.7869 0.791932 45.8566 1.49618 47.6673C2.22478 49.5403 3.19853 51.1293 4.78326 52.7123C6.36669 54.2964 7.95681 55.2716 9.83021 55.9992C11.6435 56.7036 13.7151 57.1834 16.7486 57.3224C19.7886 57.4604 20.7593 57.4943 28.499 57.4943C36.2397 57.4943 37.2083 57.4604 40.2483 57.3224C43.2824 57.1834 45.3558 56.7034 47.1691 55.9992C49.0429 55.2719 50.6307 54.2964 52.2143 52.7123C53.7997 51.1293 54.7734 49.5403 55.5037 47.6679C56.2043 45.8566 56.6852 43.7865 56.8278 40.7558C56.9644 37.7182 56.9999 36.7496 56.9999 29.0153C56.9999 21.2808 56.9644 20.3101 56.8276 17.2723C56.6854 14.2405 56.2043 12.1708 55.5037 10.3601C54.7734 8.48712 53.7997 6.89809 52.2141 5.3153C50.6289 3.731 49.0436 2.75811 47.1673 2.03124C45.3504 1.32677 43.2781 0.847002 40.2442 0.708048C37.204 0.569955 36.2363 0.536133 28.4936 0.536133H28.5027ZM25.9459 5.66818C26.7047 5.6671 27.5513 5.66818 28.5027 5.66818C36.1122 5.66818 37.014 5.69554 40.0191 5.83191C42.7979 5.95901 44.3062 6.42284 45.3107 6.81277C46.6406 7.32895 47.589 7.94595 48.5858 8.94276C49.5832 9.93957 50.2009 10.8888 50.7185 12.2178C51.1085 13.2206 51.5736 14.7276 51.7001 17.5045C51.8366 20.5066 51.8664 21.4082 51.8664 29.0086C51.8664 36.6091 51.8366 37.5109 51.7001 40.513C51.573 43.2899 51.1087 44.7969 50.7185 45.7997C50.2019 47.1285 49.5832 48.0749 48.5858 49.071C47.5883 50.0679 46.6413 50.6849 45.3105 51.201C44.3073 51.5927 42.7979 52.0554 40.0191 52.1823C37.0146 52.3189 36.1122 52.3484 28.5027 52.3484C20.8925 52.3484 19.9905 52.3189 16.986 52.1826C14.2074 52.0542 12.6991 51.5901 11.6939 51.2004C10.3638 50.6842 9.41399 50.0672 8.41632 49.0704C7.41887 48.0736 6.80144 47.1268 6.28354 45.7971C5.8936 44.7945 5.4287 43.2873 5.30224 40.5106C5.16565 37.5085 5.13829 36.6067 5.13829 29.0015C5.13829 21.3965 5.16565 20.4995 5.30202 17.4972C5.42913 14.7205 5.8936 13.2135 6.28354 12.2096C6.80015 10.8804 7.41887 9.93117 8.41632 8.93436C9.41378 7.93777 10.3638 7.32077 11.6939 6.8033C12.6985 6.41164 14.2074 5.94889 16.986 5.82135C19.6152 5.70286 20.6342 5.6671 25.9459 5.66107V5.66818ZM43.7159 10.3969C41.8276 10.3969 40.2957 11.9259 40.2957 13.8133C40.2957 15.7 41.8276 17.2307 43.7159 17.2307C45.6039 17.2307 47.1359 15.7 47.1359 13.8133C47.1359 11.9265 45.6039 10.3959 43.7159 10.3959V10.3969ZM28.5027 14.39C20.4196 14.39 13.8666 20.9385 13.8666 29.0153C13.8666 37.0919 20.4198 43.6374 28.5027 43.6374C36.5855 43.6374 43.1364 37.0921 43.1364 29.0153C43.1364 20.9385 36.5848 14.39 28.502 14.39H28.5027ZM28.5027 19.5222C33.7491 19.5222 38.0026 23.7721 38.0026 29.0153C38.0026 34.2577 33.7491 38.5084 28.5027 38.5084C23.2556 38.5084 19.0025 34.2579 19.0025 29.0153C19.0025 23.7721 23.2556 19.5222 28.5027 19.5222Z" fill="url(#paint1_radial_26_77)"/>
<path d="M28.5027 0.536133C20.7624 0.536133 19.791 0.569955 16.7508 0.708048C13.7168 0.847002 11.6459 1.32699 9.83366 2.03124C7.95939 2.75854 6.36906 3.73165 4.78498 5.3153C3.19961 6.89809 2.22585 8.48712 1.49554 10.3597C0.788916 12.171 0.308069 14.2411 0.171485 17.2716C0.0355465 20.3094 0 21.2808 0 29.0153C0 36.7496 0.0344693 37.7173 0.172131 40.7551C0.311732 43.7869 0.791932 45.8566 1.49618 47.6673C2.22478 49.5403 3.19853 51.1293 4.78326 52.7123C6.36669 54.2964 7.95681 55.2716 9.83021 55.9992C11.6435 56.7036 13.7151 57.1834 16.7486 57.3224C19.7886 57.4604 20.7593 57.4943 28.499 57.4943C36.2397 57.4943 37.2083 57.4604 40.2483 57.3224C43.2824 57.1834 45.3558 56.7034 47.1691 55.9992C49.0429 55.2719 50.6307 54.2964 52.2143 52.7123C53.7997 51.1293 54.7734 49.5403 55.5037 47.6679C56.2043 45.8566 56.6852 43.7865 56.8278 40.7558C56.9644 37.7182 56.9999 36.7496 56.9999 29.0153C56.9999 21.2808 56.9644 20.3101 56.8276 17.2723C56.6854 14.2405 56.2043 12.1708 55.5037 10.3601C54.7734 8.48712 53.7997 6.89809 52.2141 5.3153C50.6289 3.731 49.0436 2.75811 47.1673 2.03124C45.3504 1.32677 43.2781 0.847002 40.2442 0.708048C37.204 0.569955 36.2363 0.536133 28.4936 0.536133H28.5027ZM25.9459 5.66818C26.7047 5.6671 27.5513 5.66818 28.5027 5.66818C36.1122 5.66818 37.014 5.69554 40.0191 5.83191C42.7979 5.95901 44.3062 6.42284 45.3107 6.81277C46.6406 7.32895 47.589 7.94595 48.5858 8.94276C49.5832 9.93957 50.2009 10.8888 50.7185 12.2178C51.1085 13.2206 51.5736 14.7276 51.7001 17.5045C51.8366 20.5066 51.8664 21.4082 51.8664 29.0086C51.8664 36.6091 51.8366 37.5109 51.7001 40.513C51.573 43.2899 51.1087 44.7969 50.7185 45.7997C50.2019 47.1285 49.5832 48.0749 48.5858 49.071C47.5883 50.0679 46.6413 50.6849 45.3105 51.201C44.3073 51.5927 42.7979 52.0554 40.0191 52.1823C37.0146 52.3189 36.1122 52.3484 28.5027 52.3484C20.8925 52.3484 19.9905 52.3189 16.986 52.1826C14.2074 52.0542 12.6991 51.5901 11.6939 51.2004C10.3638 50.6842 9.41399 50.0672 8.41632 49.0704C7.41887 48.0736 6.80144 47.1268 6.28354 45.7971C5.8936 44.7945 5.4287 43.2873 5.30224 40.5106C5.16565 37.5085 5.13829 36.6067 5.13829 29.0015C5.13829 21.3965 5.16565 20.4995 5.30202 17.4972C5.42913 14.7205 5.8936 13.2135 6.28354 12.2096C6.80015 10.8804 7.41887 9.93117 8.41632 8.93436C9.41378 7.93777 10.3638 7.32077 11.6939 6.8033C12.6985 6.41164 14.2074 5.94889 16.986 5.82135C19.6152 5.70286 20.6342 5.6671 25.9459 5.66107V5.66818ZM43.7159 10.3969C41.8276 10.3969 40.2957 11.9259 40.2957 13.8133C40.2957 15.7 41.8276 17.2307 43.7159 17.2307C45.6039 17.2307 47.1359 15.7 47.1359 13.8133C47.1359 11.9265 45.6039 10.3959 43.7159 10.3959V10.3969ZM28.5027 14.39C20.4196 14.39 13.8666 20.9385 13.8666 29.0153C13.8666 37.0919 20.4198 43.6374 28.5027 43.6374C36.5855 43.6374 43.1364 37.0921 43.1364 29.0153C43.1364 20.9385 36.5848 14.39 28.502 14.39H28.5027ZM28.5027 19.5222C33.7491 19.5222 38.0026 23.7721 38.0026 29.0153C38.0026 34.2577 33.7491 38.5084 28.5027 38.5084C23.2556 38.5084 19.0025 34.2579 19.0025 29.0153C19.0025 23.7721 23.2556 19.5222 28.5027 19.5222Z" fill="black"/>
<path d="M28.5027 0.536133C20.7624 0.536133 19.791 0.569955 16.7508 0.708048C13.7168 0.847002 11.6459 1.32699 9.83366 2.03124C7.95939 2.75854 6.36906 3.73165 4.78498 5.3153C3.19961 6.89809 2.22585 8.48712 1.49554 10.3597C0.788916 12.171 0.308069 14.2411 0.171485 17.2716C0.0355465 20.3094 0 21.2808 0 29.0153C0 36.7496 0.0344693 37.7173 0.172131 40.7551C0.311732 43.7869 0.791932 45.8566 1.49618 47.6673C2.22478 49.5403 3.19853 51.1293 4.78326 52.7123C6.36669 54.2964 7.95681 55.2716 9.83021 55.9992C11.6435 56.7036 13.7151 57.1834 16.7486 57.3224C19.7886 57.4604 20.7593 57.4943 28.499 57.4943C36.2397 57.4943 37.2083 57.4604 40.2483 57.3224C43.2824 57.1834 45.3558 56.7034 47.1691 55.9992C49.0429 55.2719 50.6307 54.2964 52.2143 52.7123C53.7997 51.1293 54.7734 49.5403 55.5037 47.6679C56.2043 45.8566 56.6852 43.7865 56.8278 40.7558C56.9644 37.7182 56.9999 36.7496 56.9999 29.0153C56.9999 21.2808 56.9644 20.3101 56.8276 17.2723C56.6854 14.2405 56.2043 12.1708 55.5037 10.3601C54.7734 8.48712 53.7997 6.89809 52.2141 5.3153C50.6289 3.731 49.0436 2.75811 47.1673 2.03124C45.3504 1.32677 43.2781 0.847002 40.2442 0.708048C37.204 0.569955 36.2363 0.536133 28.4936 0.536133H28.5027ZM25.9459 5.66818C26.7047 5.6671 27.5513 5.66818 28.5027 5.66818C36.1122 5.66818 37.014 5.69554 40.0191 5.83191C42.7979 5.95901 44.3062 6.42284 45.3107 6.81277C46.6406 7.32895 47.589 7.94595 48.5858 8.94276C49.5832 9.93957 50.2009 10.8888 50.7185 12.2178C51.1085 13.2206 51.5736 14.7276 51.7001 17.5045C51.8366 20.5066 51.8664 21.4082 51.8664 29.0086C51.8664 36.6091 51.8366 37.5109 51.7001 40.513C51.573 43.2899 51.1087 44.7969 50.7185 45.7997C50.2019 47.1285 49.5832 48.0749 48.5858 49.071C47.5883 50.0679 46.6413 50.6849 45.3105 51.201C44.3073 51.5927 42.7979 52.0554 40.0191 52.1823C37.0146 52.3189 36.1122 52.3484 28.5027 52.3484C20.8925 52.3484 19.9905 52.3189 16.986 52.1826C14.2074 52.0542 12.6991 51.5901 11.6939 51.2004C10.3638 50.6842 9.41399 50.0672 8.41632 49.0704C7.41887 48.0736 6.80144 47.1268 6.28354 45.7971C5.8936 44.7945 5.4287 43.2873 5.30224 40.5106C5.16565 37.5085 5.13829 36.6067 5.13829 29.0015C5.13829 21.3965 5.16565 20.4995 5.30202 17.4972C5.42913 14.7205 5.8936 13.2135 6.28354 12.2096C6.80015 10.8804 7.41887 9.93117 8.41632 8.93436C9.41378 7.93777 10.3638 7.32077 11.6939 6.8033C12.6985 6.41164 14.2074 5.94889 16.986 5.82135C19.6152 5.70286 20.6342 5.6671 25.9459 5.66107V5.66818ZM43.7159 10.3969C41.8276 10.3969 40.2957 11.9259 40.2957 13.8133C40.2957 15.7 41.8276 17.2307 43.7159 17.2307C45.6039 17.2307 47.1359 15.7 47.1359 13.8133C47.1359 11.9265 45.6039 10.3959 43.7159 10.3959V10.3969ZM28.5027 14.39C20.4196 14.39 13.8666 20.9385 13.8666 29.0153C13.8666 37.0919 20.4198 43.6374 28.5027 43.6374C36.5855 43.6374 43.1364 37.0921 43.1364 29.0153C43.1364 20.9385 36.5848 14.39 28.502 14.39H28.5027ZM28.5027 19.5222C33.7491 19.5222 38.0026 23.7721 38.0026 29.0153C38.0026 34.2577 33.7491 38.5084 28.5027 38.5084C23.2556 38.5084 19.0025 34.2579 19.0025 29.0153C19.0025 23.7721 23.2556 19.5222 28.5027 19.5222Z" fill="black"/>
<defs>
<radialGradient id="paint0_radial_26_77" cx="0" cy="0" r="1" gradientUnits="userSpaceOnUse" gradientTransform="translate(55.1604 27.2524) rotate(164.25) scale(36.4198 26.2389)">
<stop stop-color="#FF005F"/>
<stop offset="1" stop-color="#FC01D8"/>
</radialGradient>
<radialGradient id="paint1_radial_26_77" cx="0" cy="0" r="1" gradientUnits="userSpaceOnUse" gradientTransform="translate(15.1408 61.9263) rotate(-90) scale(45.4985 48.273)">
<stop stop-color="#FFCC00"/>
<stop offset="0.124161" stop-color="#FFCC00"/>
<stop offset="0.567196" stop-color="#FE4A05"/>
<stop offset="0.694203" stop-color="#FF0F3F"/>
<stop offset="1" stop-color="#FE0657" stop-opacity="0"/>
</radialGradient>
</defs>
</svg>
