<svg width="57" height="66" viewBox="0 0 57 66" fill="none" xmlns="http://www.w3.org/2000/svg">
<path d="M49.0858 14.505C48.6492 14.2793 48.2242 14.0319 47.8123 13.7638C46.6146 12.9719 45.5164 12.039 44.5415 10.9849C42.1023 8.19389 41.1913 5.36246 40.8557 3.38006H40.8692C40.5889 1.73457 40.7048 0.669922 40.7223 0.669922H29.6122V43.6305C29.6122 44.2073 29.6122 44.7774 29.5879 45.3407C29.5879 45.4108 29.5812 45.4754 29.5772 45.5509C29.5772 45.5819 29.5772 45.6143 29.5704 45.6466C29.5704 45.6547 29.5704 45.6628 29.5704 45.6709C29.4533 47.2123 28.9592 48.7013 28.1315 50.0069C27.3039 51.3126 26.1681 52.3948 24.824 53.1584C23.4232 53.9554 21.8388 54.3734 20.2271 54.3713C15.0508 54.3713 10.8555 50.1505 10.8555 44.9377C10.8555 39.725 15.0508 35.5041 20.2271 35.5041C21.207 35.5032 22.1808 35.6574 23.1125 35.961L23.1259 24.6488C20.2977 24.2834 17.4244 24.5082 14.6874 25.3089C11.9504 26.1096 9.409 27.4688 7.22359 29.3009C5.30866 30.9647 3.69877 32.9499 2.46636 35.1672C1.99738 35.9758 0.227905 39.225 0.0136273 44.4984C-0.121138 47.4915 0.777748 50.5925 1.2063 51.8741V51.9011C1.47583 52.6558 2.52027 55.2311 4.22236 57.4022C5.59486 59.1437 7.21643 60.6736 9.03484 61.9425V61.9155L9.06179 61.9425C14.4403 65.5973 20.4037 65.3574 20.4037 65.3574C21.436 65.3156 24.8941 65.3574 28.8211 63.4963C33.1768 61.433 35.6564 58.359 35.6564 58.359C37.2406 56.5223 38.5003 54.4291 39.3814 52.1693C40.3867 49.5265 40.7223 46.3568 40.7223 45.09V22.2985C40.857 22.3793 42.6521 23.5666 42.6521 23.5666C42.6521 23.5666 45.2383 25.2242 49.2732 26.3037C52.1679 27.0719 56.068 27.2336 56.068 27.2336V16.2044C54.7015 16.3526 51.9267 15.9213 49.0858 14.505Z" fill="black"/>
</svg>
