<svg width="69" height="50" viewBox="0 0 69 50" fill="none" xmlns="http://www.w3.org/2000/svg">
<path d="M67.5579 8.16707C67.1647 6.68379 66.3942 5.33138 65.3237 4.24528C64.2531 3.15917 62.92 2.37752 61.4579 1.97861C56.0769 0.515625 34.4997 0.515625 34.4997 0.515625C34.4997 0.515625 12.9231 0.515625 7.54209 1.97861C6.08002 2.37752 4.74693 3.15917 3.67635 4.24528C2.60577 5.33138 1.83529 6.68379 1.44208 8.16707C0 13.626 0 25.0159 0 25.0159C0 25.0159 0 36.4052 1.44208 41.8642C1.83534 43.3474 2.60584 44.6998 3.67641 45.7859C4.74698 46.872 6.08004 47.6537 7.54209 48.0526C12.9231 49.515 34.4997 49.515 34.4997 49.515C34.4997 49.515 56.0769 49.515 61.4579 48.0526C62.92 47.6536 64.2531 46.8719 65.3237 45.7857C66.3943 44.6995 67.1647 43.347 67.5579 41.8636C69 36.4046 69 25.0153 69 25.0153C69 25.0153 69 13.626 67.5579 8.16707Z" fill="black"/>
<path d="M27.6001 35.5155L45.5258 25.0158L27.6001 14.5156V35.5155Z" fill="white"/>
</svg>
