<svg xmlns="http://www.w3.org/2000/svg" xmlns:xlink="http://www.w3.org/1999/xlink" viewBox="0 0 5.77 65"><defs><style>.cls-1{fill:url(#linear-gradient);}.cls-2{fill:url(#linear-gradient-2);}.cls-3{fill:url(#linear-gradient-3);}.cls-4{fill:url(#linear-gradient-4);}.cls-5{fill:url(#linear-gradient-5);}</style><linearGradient id="linear-gradient" x1="2.47" y1="-12.44" x2="5.4" y2="74.49" gradientUnits="userSpaceOnUse"><stop offset="0" stop-color="#2b2b2b" stop-opacity="0"/><stop offset="0.14" stop-color="#595959" stop-opacity="0.22"/><stop offset="0.32" stop-color="#8b8b8b" stop-opacity="0.45"/><stop offset="0.48" stop-color="#b4b4b4" stop-opacity="0.65"/><stop offset="0.64" stop-color="#d5d5d5" stop-opacity="0.8"/><stop offset="0.78" stop-color="#ececec" stop-opacity="0.91"/><stop offset="0.91" stop-color="#fafafa" stop-opacity="0.98"/><stop offset="1" stop-color="#fff"/></linearGradient><linearGradient id="linear-gradient-2" x1="1.96" y1="-12.42" x2="4.89" y2="74.51" xlink:href="#linear-gradient"/><linearGradient id="linear-gradient-3" x1="1.46" y1="-12.41" x2="4.39" y2="74.53" xlink:href="#linear-gradient"/><linearGradient id="linear-gradient-4" x1="0.95" y1="-12.39" x2="3.88" y2="74.54" xlink:href="#linear-gradient"/><linearGradient id="linear-gradient-5" x1="0.44" y1="-12.37" x2="3.38" y2="74.56" xlink:href="#linear-gradient"/></defs><g id="Layer_2" data-name="Layer 2"><g id="Layer_1-2" data-name="Layer 1"><polygon class="cls-1" points="5.77 0 0 0 2.89 5 5.77 0"/><polygon class="cls-2" points="2.89 20 5.77 15 0 15 2.89 20"/><polygon class="cls-3" points="2.89 35 5.77 30 0 30 2.89 35"/><polygon class="cls-4" points="2.89 50 5.77 45 0 45 2.89 50"/><polygon class="cls-5" points="2.89 65 5.77 60 0 60 2.89 65"/></g></g></svg>