<svg xmlns="http://www.w3.org/2000/svg" xmlns:xlink="http://www.w3.org/1999/xlink" viewBox="0 0 232.2 63"><defs><style>.cls-1,.cls-5{font-size:6.3px;}.cls-1,.cls-10,.cls-4,.cls-5,.cls-9{fill:#fff;}.cls-1,.cls-10,.cls-5{font-family:Pretendard-Medium-KSCpc-EUC-H, Pretendard;}.cls-1{letter-spacing:-0.01em;}.cls-2,.cls-6{font-family:Pretendard-SemiBold-KSCpc-EUC-H, Pretendard;}.cls-11,.cls-12,.cls-3,.cls-7,.cls-8{font-family:Pretendard-ExtraBold-KSCpc-EUC-H, Pretendard;}.cls-4,.cls-9{font-size:3.96px;font-family:Pretendard-Regular-KSCpc-EUC-H, Pretendard;}.cls-4{letter-spacing:-0.01em;}.cls-5{letter-spacing:-0.01em;}.cls-6{letter-spacing:-0.01em;}.cls-7{letter-spacing:-0.02em;}.cls-8{letter-spacing:-0.04em;}.cls-9{letter-spacing:-0.01em;}.cls-10{font-size:5.85px;letter-spacing:-0.01em;}.cls-11{letter-spacing:-0.03em;}.cls-12{letter-spacing:-0.04em;}.cls-13{fill:#3d3d3d;}.cls-14{fill:url(#linear-gradient);}.cls-15{fill:url(#linear-gradient-2);}.cls-16{fill:url(#linear-gradient-3);}</style><linearGradient id="linear-gradient" x1="31.5" y1="18.42" x2="63" y2="18.42" gradientUnits="userSpaceOnUse"><stop offset="0" stop-color="#ffde3b"/><stop offset="0.24" stop-color="#ffdb36"/><stop offset="0.53" stop-color="#fdd228"/><stop offset="0.83" stop-color="#fbc311"/><stop offset="1" stop-color="#f9b800"/></linearGradient><linearGradient id="linear-gradient-2" x1="86.54" y1="31.52" x2="147.6" y2="31.52" xlink:href="#linear-gradient"/><linearGradient id="linear-gradient-3" x1="200.7" y1="30.59" x2="232.2" y2="30.59" xlink:href="#linear-gradient"/></defs><g id="Layer_2" data-name="Layer 2"><g id="Layer_1-2" data-name="Layer 1"><text class="cls-1" transform="translate(17.43 38.7)">30대<tspan class="cls-2" x="13.08" y="0"> </tspan><tspan class="cls-3" x="14.51" y="0">27%</tspan></text><text class="cls-4" transform="translate(11.93 29.13)">컴포즈커피 연령별 관심도</text><text class="cls-5" transform="translate(100.3 38.7)">여성<tspan class="cls-6" x="10.76" y="0"> </tspan><tspan class="cls-7" x="12.2" y="0">7</tspan><tspan class="cls-8" x="15.72" y="0">0.</tspan><tspan class="cls-3" x="21.34" y="0">8%</tspan></text><text class="cls-9" transform="translate(98.96 29.13)">커피 오더 앱 결제 비율</text><text class="cls-10" transform="translate(183.35 42.3)">직장인<tspan class="cls-2" x="14.99" y="0"> </tspan><tspan class="cls-3" x="16.32" y="0">4</tspan><tspan class="cls-11" x="20.17" y="0">5</tspan><tspan class="cls-12" x="23.72" y="0">.</tspan><tspan class="cls-3" x="25.19" y="0">6%</tspan></text><text class="cls-9" transform="translate(184.52 26.43)">컴포즈커피 앱 사용자<tspan x="8.94" y="5.15">직업 비율</tspan></text><path class="cls-13" d="M59.85,36.58A28.8,28.8,0,0,1,2.7,31.5,29.14,29.14,0,0,1,3,27.3,28.85,28.85,0,0,1,31.5,2.7V0A31.55,31.55,0,0,0,.34,26.87,32,32,0,0,0,0,31.5,31.5,31.5,0,0,0,62.51,37Z"/><path class="cls-14" d="M63,31.5a30.11,30.11,0,0,1-.28,4.17,1.32,1.32,0,0,1-1.54,1.12h0a1.33,1.33,0,0,1-1.12-1.48,30,30,0,0,0,.25-3.81A28.84,28.84,0,0,0,32.82,2.73,1.35,1.35,0,0,1,31.5,1.38h0A1.34,1.34,0,0,1,32.88,0,31.53,31.53,0,0,1,63,31.5Z"/><path class="cls-13" d="M84.6,31.5a31.23,31.23,0,0,0,1.55,9.77l2.58-.8A28.81,28.81,0,0,1,116.1,2.7V0A31.53,31.53,0,0,0,84.6,31.5Z"/><path class="cls-15" d="M147.58,32.5a31.5,31.5,0,0,1-61,10.15,1.36,1.36,0,0,1,.86-1.79h0a1.35,1.35,0,0,1,1.67.83,28.8,28.8,0,1,0,28.26-39,1.36,1.36,0,0,1-1.32-1.35h0A1.36,1.36,0,0,1,117.53,0,31.58,31.58,0,0,1,146.3,22.55,31.12,31.12,0,0,1,147.58,32.5Z"/><path class="cls-13" d="M209.41,59A28.8,28.8,0,1,1,200.7,2.7V0a31.5,31.5,0,0,0,0,63,31.06,31.06,0,0,0,9.54-1.48Z"/><path class="cls-16" d="M232.2,31.5a31.55,31.55,0,0,1-20.68,29.58,1.32,1.32,0,0,1-1.7-.85v0a1.34,1.34,0,0,1,.84-1.66A28.8,28.8,0,0,0,202,2.73a1.34,1.34,0,0,1-1.3-1.33v0A1.32,1.32,0,0,1,202.06,0,31.54,31.54,0,0,1,232.2,31.5Z"/></g></g></svg>