<svg xmlns="http://www.w3.org/2000/svg" viewBox="0 0 141.96 12.24"><defs><style>.cls-1{fill:#fff;}</style></defs><g id="Layer_2" data-name="Layer 2"><g id="Layer_1-2" data-name="Layer 1"><path class="cls-1" d="M24.19,3.7a8.09,8.09,0,0,0-.51-1,5.52,5.52,0,0,0-.74-.92h0A5.58,5.58,0,0,0,21,.46,3.61,3.61,0,0,0,19.87.11,9.73,9.73,0,0,0,18.67,0h-.11a6.09,6.09,0,0,0-2.28.4,6.81,6.81,0,0,0-1.93,1.19h0a6.28,6.28,0,0,0-.8.91,9.7,9.7,0,0,0-.57,1h0a3.87,3.87,0,0,0-.34,1.14,8.81,8.81,0,0,0-.12,1.25V6h0a8.17,8.17,0,0,0,.12,1.26A4.49,4.49,0,0,0,13,8.43h0a8.09,8.09,0,0,0,.51,1,6,6,0,0,0,.74.91,5.51,5.51,0,0,0,1.94,1.31,3.59,3.59,0,0,0,1.14.34,7.87,7.87,0,0,0,1.19.12h.12a6.28,6.28,0,0,0,2.27-.4,8,8,0,0,0,1.94-1.2,6.36,6.36,0,0,0,.8-.91,10.3,10.3,0,0,0,.56-1,3.69,3.69,0,0,0,.35-1.14,10.74,10.74,0,0,0,.11-1.25V6.09a9.69,9.69,0,0,0-.11-1.25,3.61,3.61,0,0,0-.35-1.14M21.58,6.15a2.88,2.88,0,0,1-.06.74c-.06.23-.11.45-.17.62a2.07,2.07,0,0,1-.29.52,2.61,2.61,0,0,1-.39.45h0a2.37,2.37,0,0,1-1,.57,1.58,1.58,0,0,1-.51.12,2.05,2.05,0,0,1-.57.05h-.06A2,2,0,0,1,18,9.17L17.48,9h0A2.42,2.42,0,0,1,17,8.71a2.93,2.93,0,0,1-.45-.34h0a1.41,1.41,0,0,1-.34-.46c-.12-.17-.17-.34-.29-.51s-.11-.4-.17-.63a3.07,3.07,0,0,1-.05-.68V6a3.4,3.4,0,0,1,.05-.74c.06-.23.12-.46.17-.63h0a2.21,2.21,0,0,1,.29-.51,2.74,2.74,0,0,1,.4-.46,2.5,2.5,0,0,1,1-.57l.52-.17a1.66,1.66,0,0,0,.57.06h.05a1.66,1.66,0,0,1,.57.06l.51.17h0a2,2,0,0,1,.52.28c.17.12.28.23.45.34h0a1.28,1.28,0,0,1,.34.46c.12.17.17.34.29.51h0c.06.17.11.4.17.63a2.61,2.61,0,0,1,.06.68v.06"/><path class="cls-1" d="M8.54,4.21c.06.12.17.34.28.52a.34.34,0,0,0,.23.11H11.9c-.06-.23-.06-.4-.12-.57s0-.34-.11-.51a8.2,8.2,0,0,0-.51-1,6.53,6.53,0,0,0-.74-.91A5.64,5.64,0,0,0,8.48.51,3.87,3.87,0,0,0,7.34.17,7.86,7.86,0,0,0,6.15.06H6a6.07,6.07,0,0,0-2.27.4A5.29,5.29,0,0,0,1.82,1.65h0a7,7,0,0,0-.8.91,9.42,9.42,0,0,0-.56,1A3.61,3.61,0,0,0,.11,4.73,9.38,9.38,0,0,0,0,6v.11H0A9.38,9.38,0,0,0,.11,7.34,4.15,4.15,0,0,0,.46,8.48a8.2,8.2,0,0,0,.51,1,3.45,3.45,0,0,0,.74.85,5.47,5.47,0,0,0,1.93,1.31A3.67,3.67,0,0,0,4.78,12a8.13,8.13,0,0,0,1.2.12h.11a6.3,6.3,0,0,0,2.28-.4,7.92,7.92,0,0,0,1.93-1.2,5.79,5.79,0,0,0,.8-.91,8.7,8.7,0,0,0,.57-1c.06-.17.11-.35.17-.57s.06-.4.12-.63V7.29H9.05a.3.3,0,0,0-.23.11v.06A2.15,2.15,0,0,1,8.54,8a3.2,3.2,0,0,1-.4.46,2.39,2.39,0,0,1-1,.56,1.58,1.58,0,0,1-.51.12,1.66,1.66,0,0,1-.57.06H6a1.63,1.63,0,0,1-.56-.06L5,8.94H5a2.21,2.21,0,0,1-.51-.29A2.4,2.4,0,0,1,4,8.31H4a1.83,1.83,0,0,1-.35-.4c-.11-.17-.17-.34-.28-.51h0a5.6,5.6,0,0,1-.17-.63,2.57,2.57,0,0,1-.06-.68V6a2.85,2.85,0,0,1,.06-.74,5.6,5.6,0,0,1,.17-.63h0a2.58,2.58,0,0,1,.28-.51A3.28,3.28,0,0,1,4,3.64a2.61,2.61,0,0,1,1-.57c.11,0,.28,0,.46,0A1.78,1.78,0,0,1,6,3h.06A1.66,1.66,0,0,1,6.66,3l.51.17h0a2.42,2.42,0,0,1,.52.28c.17.12.28.23.45.34A1.39,1.39,0,0,1,8.54,4.21Z"/><path class="cls-1" d="M38.37.28s-.06,0-.06-.05H34.84c-.06,0-.11,0-.11.05l-.06.06a.06.06,0,0,1-.06.06l-2.5,6.43c-.06.06-.12.12-.17.12a.29.29,0,0,1-.23-.12L29.09.4A.13.13,0,0,0,29,.28a.22.22,0,0,1-.12-.05H25.5c-.05,0-.05.05-.11.11a.06.06,0,0,1-.06.06h0V11.61h0v.12h0s.06,0,.12.11a.05.05,0,0,1,.05.06H28a.06.06,0,0,0,.06-.06l.05-.06v-5c0-.11.06-.17.17-.22s.23,0,.23.11l2,5.07a.13.13,0,0,0,.12.11h0a.21.21,0,0,1,.11.06h2c.06,0,.12,0,.12-.06l0-.06a.05.05,0,0,1,.06,0L35,6.6c.06-.11.12-.17.23-.11s.17.11.17.23v5h0v.11c0,.06.06.06.12.12a.05.05,0,0,1,.05.06h2.62a.06.06,0,0,0,.06-.06l.06-.06V.51h0V.4c.17-.06.17-.06.11-.12"/><path class="cls-1" d="M47.71,2.56h0a5.72,5.72,0,0,0-.35-.62,2,2,0,0,0-.51-.57,2.56,2.56,0,0,0-.62-.46L45.54.57A5,5,0,0,0,43.89.28H39.57c-.06,0-.06.06-.12.12a.06.06,0,0,1-.06.06v0h0V11.67h0v.11c0,.06.06.06.12.12a.06.06,0,0,1,.06.06h2.67a.06.06,0,0,0,.06-.06l.06-.06V8.2a.22.22,0,0,1,0-.17A.21.21,0,0,1,42.58,8H44a4.4,4.4,0,0,0,1.54-.28,3.82,3.82,0,0,0,1.25-.8,4.87,4.87,0,0,0,.51-.57,1.63,1.63,0,0,0,.34-.63h0A2.57,2.57,0,0,0,47.82,5a3.25,3.25,0,0,0,.06-.79V4.1h0c0-.29-.06-.51-.06-.74a1.64,1.64,0,0,0-.11-.8M45,4.1h0v.28c0,.06-.06.17-.06.23h0c0,.06,0,.12-.11.17L44.69,5h0c-.06.06-.11.12-.17.12h0a1.69,1.69,0,0,1-.23.11c-.17.06-.34.06-.51.11H42.7a.22.22,0,0,1-.17,0,.21.21,0,0,1-.06-.17V3.13A.2.2,0,0,1,42.53,3s.11-.06.17-.06h1c.23,0,.4.06.57.06a.49.49,0,0,1,.23.11c.06.06.12.12.17.12h0l.17.17h0c.06.06.06.11.12.17s0,.11,0,.23A.68.68,0,0,0,45,4.1h0"/><path class="cls-1" d="M60.29,3.7h0a9.7,9.7,0,0,0-.51-1A6.08,6.08,0,0,0,59,1.76,5.62,5.62,0,0,0,57.1.46,3.61,3.61,0,0,0,56,.11,9.75,9.75,0,0,0,54.77,0h-.12a6.09,6.09,0,0,0-2.28.4,6.81,6.81,0,0,0-1.93,1.19,6.28,6.28,0,0,0-.8.91,9.7,9.7,0,0,0-.57,1,3.87,3.87,0,0,0-.34,1.14,8.79,8.79,0,0,0-.11,1.25V6h0a8.21,8.21,0,0,0,.11,1.26,4.49,4.49,0,0,0,.34,1.14,8.18,8.18,0,0,0,.52,1,5,5,0,0,0,.74.91,5.38,5.38,0,0,0,1.93,1.31A3.59,3.59,0,0,0,53.4,12a8.13,8.13,0,0,0,1.19.12h.12a6.3,6.3,0,0,0,2.28-.4,7.92,7.92,0,0,0,1.93-1.2,5.79,5.79,0,0,0,.8-.91,8.7,8.7,0,0,0,.57-1,4,4,0,0,0,.34-1.14,8.92,8.92,0,0,0,.11-1.25V6.09h0a8.19,8.19,0,0,0-.11-1.25,3.87,3.87,0,0,0-.34-1.14M57.67,6.15h0a2.88,2.88,0,0,1-.06.74,5.38,5.38,0,0,1-.17.62,2.39,2.39,0,0,1-.28.52,3.23,3.23,0,0,1-.4.45h0a2.37,2.37,0,0,1-1,.57l-.51.17a1.66,1.66,0,0,1-.57.06h-.06a1.66,1.66,0,0,1-.57-.06l-.51-.17a2.58,2.58,0,0,1-.51-.28c-.17-.12-.29-.23-.46-.34h0A1.57,1.57,0,0,1,52.26,8c-.11-.17-.17-.34-.28-.51h0a5.6,5.6,0,0,1-.17-.63,2.61,2.61,0,0,1-.06-.68V6a2.88,2.88,0,0,1,.06-.74A6,6,0,0,1,52,4.67h0a2.15,2.15,0,0,1,.28-.51,2.74,2.74,0,0,1,.4-.46,2.42,2.42,0,0,1,1-.57L54.14,3h.63a1.72,1.72,0,0,1,.57.06l.51.17h0a2.15,2.15,0,0,1,.51.28c.17.12.28.23.46.34h0a1.57,1.57,0,0,1,.34.46c.11.17.17.34.28.51h0a5.6,5.6,0,0,1,.17.63,2.61,2.61,0,0,1,.06.68v.06"/><path class="cls-1" d="M70.19,7.34a3,3,0,0,0-.62-1.08h0a3.87,3.87,0,0,0-1-.85,4.47,4.47,0,0,0-1.42-.51h0l-1.48-.35h0a1.92,1.92,0,0,1-.4-.17h0A.49.49,0,0,0,65,4.27h0l-.11-.11h0c0-.06-.06-.06-.06-.12h0s0-.11,0-.17V3.7h0a.23.23,0,0,1,0-.17h0c0-.06.06-.11.06-.17h0c.06-.06.06-.12.11-.17L65.18,3c.06-.06.12-.06.17-.12s.12,0,.23,0a1.49,1.49,0,0,1,.51-.06h.06a.91.91,0,0,1,.4.06.76.76,0,0,1,.34.11,1.25,1.25,0,0,1,.23.11h0l.06.06,0,.06.06.05h0a.06.06,0,0,0,.06.06c.05.06.05.12.11.17s.17.29.23.4a.06.06,0,0,0,.06.06.16.16,0,0,0,.11.06h.06l2.27-.23a.06.06,0,0,0,.06-.06c.06,0,.06-.06.06-.11s0-.06,0-.12V3.42A4.12,4.12,0,0,0,70,2.28a5.54,5.54,0,0,0-.68-1A2.1,2.1,0,0,0,68.77.8,3.09,3.09,0,0,0,68,.4,5.74,5.74,0,0,0,66.21,0h-.12a4.35,4.35,0,0,0-1.53.23A4,4,0,0,0,63.19,1a2.57,2.57,0,0,0-.57.57,6.66,6.66,0,0,0-.45.62,2.85,2.85,0,0,0-.29.74,3.29,3.29,0,0,0-.11.8v.06h0A3.81,3.81,0,0,0,61.94,5a3,3,0,0,0,.57,1,4.33,4.33,0,0,0,1,.85h0a4.17,4.17,0,0,0,1.31.51h0l1.48.35h0a2.51,2.51,0,0,1,.45.17.58.58,0,0,1,.29.22h0l.11.12h0c0,.05.06.05.06.11h0c0,.06,0,.12,0,.12V8.6h0a.24.24,0,0,1,0,.17c0,.05-.06.11-.06.17h0a.13.13,0,0,1-.11.11c-.06.06-.12.12-.18.12h0c0,.05-.11.05-.17.11s-.11.06-.22.06a2,2,0,0,1-.57.05h-.06A1.79,1.79,0,0,1,65,9.22l-.35-.17a1,1,0,0,1-.28-.23h0a1.15,1.15,0,0,1-.23-.28h0V8.43c0-.06,0-.06,0-.12a.43.43,0,0,1-.12-.23c0-.05-.06-.05-.06-.11s0-.06-.11-.06h-.28c-.17,0-.46.06-.69.06-.51.06-1.14.06-1.36.11h-.12a.05.05,0,0,0-.05.06c-.06,0-.06.06-.12.11s-.06.06-.06.12h0c0,.17,0,.34.06.4a.82.82,0,0,0,.12.34c.05.06.05.17.11.28a4.69,4.69,0,0,0,.91,1.26,3.45,3.45,0,0,0,.63.57,3.23,3.23,0,0,0,.79.39,6.23,6.23,0,0,0,1.94.4h.11a5.13,5.13,0,0,0,1.71-.23A3.88,3.88,0,0,0,68.83,11h0a2.8,2.8,0,0,0,.57-.57,2.45,2.45,0,0,0,.4-.62c.11-.23.17-.46.28-.68a2.81,2.81,0,0,0,.11-.74V8.37h0A1,1,0,0,0,70.19,7.34Z"/><path class="cls-1" d="M79,.51h0V.4A.06.06,0,0,0,79,.34L78.9.28H71.62c-.06,0-.06.06-.12.12s0,.06,0,.06h0v0l-.06,11.16h0v.11a.06.06,0,0,0,.06.06l0,.06h7.29a.06.06,0,0,0,.06-.06l.05-.06V9.34h0V9.22c0-.05-.05-.05-.11-.11a.06.06,0,0,1-.06-.06H74.52A.2.2,0,0,1,74.35,9a.19.19,0,0,1-.06-.17V7.63a.19.19,0,0,1,.06-.17.2.2,0,0,1,.17-.06h3.81a.06.06,0,0,0,.06-.06l.06,0V5h0V4.9a.06.06,0,0,0-.06-.06l-.06-.06H74.52a.23.23,0,0,1-.17,0,.22.22,0,0,1-.06-.18V3.36a.19.19,0,0,1,.06-.17.2.2,0,0,1,.17-.06h4.21a.06.06,0,0,0,.06-.06l.06,0V2.9L79,.51Z"/><path class="cls-1" d="M107,3.7h0a5.35,5.35,0,0,0-1.25-1.94,5.62,5.62,0,0,0-1.94-1.3h0A6,6,0,0,0,101.43,0h-.11A6.09,6.09,0,0,0,99,.4,6.86,6.86,0,0,0,97.1,1.59h0a6.21,6.21,0,0,0-.79.91,9.7,9.7,0,0,0-.57,1,3.59,3.59,0,0,0-.34,1.14,8.81,8.81,0,0,0-.12,1.25V6h0a8.17,8.17,0,0,0,.12,1.26,4.12,4.12,0,0,0,.34,1.14,8.09,8.09,0,0,0,.51,1,5.45,5.45,0,0,0,.74.91h0a5.47,5.47,0,0,0,1.93,1.31h0a6,6,0,0,0,2.34.46h.11a6.3,6.3,0,0,0,2.28-.4,7.13,7.13,0,0,0,1.94-1.2,6.29,6.29,0,0,0,.79-.91,8.7,8.7,0,0,0,.57-1,3.67,3.67,0,0,0,.34-1.14,9,9,0,0,0,.12-1.25V6.09h0A8,8,0,0,0,107,3.7Zm-2.73,2.45h0A4,4,0,0,1,104,7.46a2.58,2.58,0,0,1-.28.51,1.52,1.52,0,0,1-.4.4,4.38,4.38,0,0,1-.91.57,3.44,3.44,0,0,1-1.08.17h-.06a2.31,2.31,0,0,1-1.08-.23h0a3,3,0,0,1-1-.63,2,2,0,0,1-.34-.39c-.12-.17-.17-.35-.29-.52h0a4.17,4.17,0,0,1-.22-1.25V6a3.4,3.4,0,0,1,0-.74c.06-.23.12-.4.17-.63a2.21,2.21,0,0,1,.29-.51,1.27,1.27,0,0,1,.4-.4h0a3.61,3.61,0,0,1,.91-.57A3.4,3.4,0,0,1,101.26,3h.06a2.33,2.33,0,0,1,1.08.23,2.42,2.42,0,0,1,.91.62c.11.12.23.29.34.4a2.17,2.17,0,0,1,.23.52,4.21,4.21,0,0,1,.23,1.3c.11.06.11.06.11.12"/><path class="cls-1" d="M116,3.07a.05.05,0,0,1,.06,0V.57h0V.46c0-.06-.06-.06-.06-.12a.17.17,0,0,0-.11-.06h-7.34a.13.13,0,0,0-.12.12h0a.06.06,0,0,1-.06.06h0V11.61h0v.12a.13.13,0,0,0,.12.11.06.06,0,0,1,.06.06h2.67c.06,0,.06-.06.12-.06a.22.22,0,0,0,0-.11V8a.21.21,0,0,1,.23-.23h3.7c.06,0,.06,0,.11,0a.21.21,0,0,0,.06-.12V5.18h0V5.07a.13.13,0,0,0-.11-.12s-.06,0-.06,0h-3.64a.19.19,0,0,1-.17-.06.2.2,0,0,1-.06-.17V3.42a.22.22,0,0,1,.06-.18.22.22,0,0,1,.17-.05H116c0-.06,0-.06,0-.12"/><path class="cls-1" d="M120.27,5a.19.19,0,0,1-.22-.22V3.42a.25.25,0,0,1,0-.18.24.24,0,0,1,.17-.05h4.27c.06,0,.06-.06.12-.06a.22.22,0,0,0,0-.11V.57h0V.46a.12.12,0,0,0-.11-.12.06.06,0,0,1-.06-.06h-7.28a.13.13,0,0,0-.12.12.06.06,0,0,1-.06.06V11.61h0v.12a.13.13,0,0,0,.12.11.06.06,0,0,1,.06.06h2.67c.06,0,.06-.06.12-.06a.22.22,0,0,0,0-.11V8a.21.21,0,0,1,.23-.23H124c.06,0,.06,0,.11,0a.21.21,0,0,0,.06-.12V5.18h0V5.07a.13.13,0,0,0-.11-.12s-.06,0-.06,0h-3.76Z"/><path class="cls-1" d="M132.57,4.73h-3.64a.19.19,0,0,1-.17-.06.21.21,0,0,1-.06-.17V3.42a.22.22,0,0,1,.06-.18.22.22,0,0,1,.17-.05h4.15c.06,0,.06-.06.12-.06a.22.22,0,0,0,.05-.11V.57h0V.46c0-.06-.05-.06-.05-.12a.21.21,0,0,0-.12-.06h-7.23a.13.13,0,0,0-.11.12h0a.06.06,0,0,1-.06.06V11.61h0v.12a.13.13,0,0,0,.12.11.05.05,0,0,1,0,.06h7.23c.06,0,.06-.06.12-.06a.22.22,0,0,0,.05-.11V9.28h0V9.17a.12.12,0,0,0-.11-.12h0a.06.06,0,0,1-.06-.06H129a.19.19,0,0,1-.22-.22V7.69a.25.25,0,0,1,.05-.18.24.24,0,0,1,.17,0h3.76c.06,0,.06-.06.11-.06a.21.21,0,0,0,.06-.11V5h0V4.9a.13.13,0,0,0-.11-.12s-.06,0-.06,0h-.17"/><path class="cls-1" d="M141.85.57h0V.46c0-.06-.06-.06-.06-.12a.17.17,0,0,0-.11-.06h-7.23c-.06,0-.06.06-.12.06a.22.22,0,0,0-.05.12V11.67h0v.11a.12.12,0,0,0,.11.12.06.06,0,0,1,.06.06h7.23c.06,0,.06-.06.11-.06a.21.21,0,0,0,.06-.12V9.34h0V9.22a.13.13,0,0,0-.11-.11.06.06,0,0,1-.06-.06h-4.1a.2.2,0,0,1-.17-.06.19.19,0,0,1-.06-.17V7.74a.21.21,0,0,1,.06-.17.2.2,0,0,1,.17-.06h3.76s0,0,.11,0a.21.21,0,0,0,.06-.12V5.07h0V5a.13.13,0,0,0-.12-.11.05.05,0,0,1,0-.06h-3.7a.22.22,0,0,1-.17,0,.22.22,0,0,1-.06-.18V3.42a.22.22,0,0,1,.06-.18.22.22,0,0,1,.17-.05h4.15c.06,0,.06-.06.12-.06A.22.22,0,0,0,142,3V.57Z"/><path class="cls-1" d="M89.93,3.19h0a2.15,2.15,0,0,1,.51.28,5,5,0,0,1,.46.34h0a1.57,1.57,0,0,1,.34.46c.11.17.17.34.28.51s0,.06.06.12h3c-.06-.23-.06-.4-.12-.57s0-.34-.11-.52a8.09,8.09,0,0,0-.51-1,6,6,0,0,0-.74-.91A5.51,5.51,0,0,0,91.18.57h0A3.59,3.59,0,0,0,90,.23,7.87,7.87,0,0,0,88.85.11h-.12a6.28,6.28,0,0,0-2.27.4,7,7,0,0,0-1.94,1.2h0a6.36,6.36,0,0,0-.8.91,10.3,10.3,0,0,0-.56,1,3.69,3.69,0,0,0-.35,1.14A10.74,10.74,0,0,0,82.7,6v.12a9.69,9.69,0,0,0,.11,1.25,3.61,3.61,0,0,0,.35,1.14,8.09,8.09,0,0,0,.51,1,5.07,5.07,0,0,0,.74.91,5.47,5.47,0,0,0,1.93,1.31,3.61,3.61,0,0,0,1.14.35,9.73,9.73,0,0,0,1.2.11h.11a6.09,6.09,0,0,0,2.28-.4A6.81,6.81,0,0,0,93,10.65a5.87,5.87,0,0,0,.8-.92,8.7,8.7,0,0,0,.57-1l.17-.51c.06-.17.06-.4.11-.63V7.46h-3s-.06.11-.06.17a2.58,2.58,0,0,1-.28.51,3.28,3.28,0,0,1-.4.46,2.61,2.61,0,0,1-1,.57l-.51.17a2.2,2.2,0,0,1-.57.05h-.06a2,2,0,0,1-.57-.05l-.51-.17h0a2.65,2.65,0,0,1-.51-.29,3.67,3.67,0,0,1-.46-.34h0a1.45,1.45,0,0,1-.34-.46c-.11-.17-.17-.34-.28-.51S86,7.17,85.94,7a3.21,3.21,0,0,1,0-.69V6.15a3.4,3.4,0,0,1,0-.74c.06-.23.12-.46.18-.63a2.15,2.15,0,0,1,.28-.51,3.2,3.2,0,0,1,.4-.46,2.47,2.47,0,0,1,1-.57l.51-.17a2.2,2.2,0,0,1,.57,0h.06a2,2,0,0,1,.56,0,.52.52,0,0,1,.46.12"/></g></g></svg>