<svg xmlns="http://www.w3.org/2000/svg" viewBox="0 0 148.75 51.96"><defs><style>.cls-1{fill:#f5ca1f;}</style></defs><g id="Layer_2" data-name="Layer 2"><g id="Layer_1-2" data-name="Layer 1"><path class="cls-1" d="M45.55,7a16.59,16.59,0,0,0-1-1.93,10.57,10.57,0,0,0-1.39-1.72h0A10.38,10.38,0,0,0,39.55.86,7.36,7.36,0,0,0,37.4.21,17.11,17.11,0,0,0,35.15,0h-.21a11.58,11.58,0,0,0-4.29.75A13,13,0,0,0,27,3h0a11.22,11.22,0,0,0-1.5,1.72,18.57,18.57,0,0,0-1.08,1.92h0a7.34,7.34,0,0,0-.64,2.15,17.1,17.1,0,0,0-.21,2.36v.21h0a15.69,15.69,0,0,0,.21,2.36,8.3,8.3,0,0,0,.64,2.14h0a17.42,17.42,0,0,0,1,1.93,11,11,0,0,0,1.39,1.71A10.36,10.36,0,0,0,30.44,22a6.91,6.91,0,0,0,2.14.64,15.58,15.58,0,0,0,2.25.22H35a11.79,11.79,0,0,0,4.29-.75A14.83,14.83,0,0,0,43,19.83a12.33,12.33,0,0,0,1.5-1.72,17.6,17.6,0,0,0,1.07-1.93A7.19,7.19,0,0,0,46.19,14a17.1,17.1,0,0,0,.21-2.36v-.21a15.69,15.69,0,0,0-.21-2.36A7.19,7.19,0,0,0,45.55,7m-4.93,4.6a5.56,5.56,0,0,1-.11,1.4c-.11.43-.21.85-.32,1.18a4.23,4.23,0,0,1-.54,1,5.24,5.24,0,0,1-.75.86h0A4.54,4.54,0,0,1,37.08,17a3,3,0,0,1-1,.21,3.3,3.3,0,0,1-1.08.11h-.1a3.2,3.2,0,0,1-1.07-.11l-1-.32h0a4.17,4.17,0,0,1-1-.53,5.83,5.83,0,0,1-.86-.65h0a2.36,2.36,0,0,1-.64-.85c-.22-.32-.33-.65-.54-1s-.21-.75-.32-1.18a5,5,0,0,1-.11-1.28v-.22a5.52,5.52,0,0,1,.11-1.39c.11-.43.21-.86.32-1.18h0a4.23,4.23,0,0,1,.54-1,4.48,4.48,0,0,1,.75-.86A4.43,4.43,0,0,1,33,5.79l1-.32a3.54,3.54,0,0,0,1.07.1h.11a3.2,3.2,0,0,1,1.07.11l1,.32h0a4.23,4.23,0,0,1,1,.54c.32.21.54.43.86.64h0a2.52,2.52,0,0,1,.64.86c.22.32.32.64.54,1h0c.11.32.21.75.32,1.18a5.12,5.12,0,0,1,.11,1.29v.1"/><path class="cls-1" d="M16.08,7.93a10.33,10.33,0,0,0,.53,1,.59.59,0,0,0,.43.21H22.4c-.11-.43-.11-.75-.22-1.07s-.1-.65-.21-1a16.48,16.48,0,0,0-1-1.93,11,11,0,0,0-1.4-1.71A10.55,10.55,0,0,0,16,1,7.16,7.16,0,0,0,13.82.32,15.56,15.56,0,0,0,11.57.11h-.21A11.62,11.62,0,0,0,7.07.86,10.32,10.32,0,0,0,3.43,3.11h0a11.14,11.14,0,0,0-1.5,1.71A17.78,17.78,0,0,0,.86,6.75,7.18,7.18,0,0,0,.21,8.9,17.11,17.11,0,0,0,0,11.25v.22H0a17.11,17.11,0,0,0,.21,2.35A8.28,8.28,0,0,0,.86,16a16.48,16.48,0,0,0,1,1.93,6.37,6.37,0,0,0,1.4,1.6A10.41,10.41,0,0,0,6.86,22,6.91,6.91,0,0,0,9,22.61a15.58,15.58,0,0,0,2.25.22h.22a11.73,11.73,0,0,0,4.28-.75,14.83,14.83,0,0,0,3.65-2.25,12.33,12.33,0,0,0,1.5-1.72A16.08,16.08,0,0,0,22,16.18c.11-.32.21-.64.32-1.07s.11-.75.22-1.18v-.21H17a.56.56,0,0,0-.43.21V14a4.59,4.59,0,0,1-.53,1,5.3,5.3,0,0,1-.75.86,4.46,4.46,0,0,1-1.83,1.07,3,3,0,0,1-1,.22,3.51,3.51,0,0,1-1.07.1h-.11a3.51,3.51,0,0,1-1.07-.1l-1-.32h0a4.65,4.65,0,0,1-1-.54,6.41,6.41,0,0,1-.86-.64h0a4.66,4.66,0,0,1-.64-.75c-.22-.32-.32-.65-.54-1h0c-.1-.32-.21-.75-.32-1.18a5,5,0,0,1-.11-1.28v-.22A5.52,5.52,0,0,1,6,9.86c.11-.43.22-.86.32-1.18h0a4.23,4.23,0,0,1,.54-1,4.86,4.86,0,0,1,.75-.86A4.43,4.43,0,0,1,9.43,5.79c.22,0,.54-.11.86-.11a3.54,3.54,0,0,1,1.07-.11h.11a3.2,3.2,0,0,1,1.07.11l1,.32h0a4.29,4.29,0,0,1,1,.54c.32.21.53.43.86.64A2.55,2.55,0,0,1,16.08,7.93Z"/><path class="cls-1" d="M72.23.54a.1.1,0,0,1-.1-.11H65.59c-.11,0-.22,0-.22.11l-.1.1a.11.11,0,0,1-.11.11L60.44,12.86a.51.51,0,0,1-.32.21.56.56,0,0,1-.43-.21L54.76.75a.22.22,0,0,0-.21-.21.34.34,0,0,1-.21-.11H48c-.11,0-.11.11-.21.21a.11.11,0,0,1-.11.11h0V21.86h0v.22h0c0,.1.11.1.21.21a.11.11,0,0,1,.11.11h4.72c.1,0,.1-.11.1-.11l.11-.11V12.75c0-.21.11-.32.32-.43s.43.11.43.22l3.75,9.54a.24.24,0,0,0,.22.21h0a.38.38,0,0,1,.21.11h3.75c.11,0,.22,0,.22-.11l.1-.11a.1.1,0,0,1,.11-.1l3.75-9.65c.11-.21.22-.32.43-.21s.32.21.32.43V22h0v.21c0,.11.11.11.22.22a.1.1,0,0,1,.1.11H71.8a.11.11,0,0,0,.11-.11l.11-.11V1h0V.75c.32-.11.32-.11.21-.21"/><path class="cls-1" d="M89.81,4.82h0c-.22-.43-.43-.85-.64-1.18a4.47,4.47,0,0,0-1-1.07A4.91,4.91,0,0,0,87,1.71l-1.28-.64A9.51,9.51,0,0,0,82.63.54H74.48c-.1,0-.1.1-.21.21a.11.11,0,0,1-.11.11V1h0V22h0v.21c0,.11.11.11.22.22a.1.1,0,0,1,.1.11h5a.11.11,0,0,0,.11-.11l.1-.11V15.43a.39.39,0,0,1,.43-.43h2.57a8.23,8.23,0,0,0,2.9-.53A6.88,6.88,0,0,0,88,13a10.31,10.31,0,0,0,1-1.07,3.13,3.13,0,0,0,.64-1.18h0A4.88,4.88,0,0,0,90,9.32a6.37,6.37,0,0,0,.11-1.5v-.1h0c0-.54-.11-1-.11-1.4a2.91,2.91,0,0,0-.21-1.5m-5,2.9h0v.53c0,.11-.11.32-.11.43h0c-.1.11-.1.22-.21.32l-.32.32h0c-.11.11-.22.22-.32.22h0c-.11.11-.22.11-.43.21s-.65.11-1,.22h-2a.37.37,0,0,1-.32-.11A.38.38,0,0,1,80,9.54V5.89a.39.39,0,0,1,.11-.32c.1,0,.21-.1.32-.1H82.2c.43,0,.75.1,1.07.1a.81.81,0,0,1,.43.22c.11.1.21.21.32.21h0l.32.32h0c.11.11.11.22.22.32s.1.22.1.43a1.36,1.36,0,0,0,.11.65h0"/><path class="cls-1" d="M113.49,7h0a15.06,15.06,0,0,0-1-1.93,10.62,10.62,0,0,0-1.4-1.72A10.38,10.38,0,0,0,107.49.86a7.2,7.2,0,0,0-2.14-.65A17.11,17.11,0,0,0,103.1,0h-.22A11.53,11.53,0,0,0,98.6.75,13,13,0,0,0,95,3a11.78,11.78,0,0,0-1.5,1.72,16.77,16.77,0,0,0-1.07,1.92,7.05,7.05,0,0,0-.64,2.15,17.12,17.12,0,0,0-.22,2.36v.21h0a15.65,15.65,0,0,0,.22,2.36,7.93,7.93,0,0,0,.64,2.14,15.74,15.74,0,0,0,1,1.93,10.55,10.55,0,0,0,1.4,1.71A10.41,10.41,0,0,0,98.38,22a6.89,6.89,0,0,0,2.15.64,15.58,15.58,0,0,0,2.25.22H103a11.82,11.82,0,0,0,4.29-.75,15,15,0,0,0,3.64-2.25,11.71,11.71,0,0,0,1.5-1.72,16.08,16.08,0,0,0,1.07-1.93,7.2,7.2,0,0,0,.65-2.14,18.8,18.8,0,0,0,.21-2.36v-.21h0a17.11,17.11,0,0,0-.21-2.36A7.2,7.2,0,0,0,113.49,7m-4.93,4.6h0a6.11,6.11,0,0,1-.1,1.4c-.11.43-.22.85-.33,1.18a4.17,4.17,0,0,1-.53,1,5.76,5.76,0,0,1-.75.86h0A4.61,4.61,0,0,1,105,17l-1,.32a3.2,3.2,0,0,1-1.07.11h-.11a3.2,3.2,0,0,1-1.07-.11l-1-.32a4.29,4.29,0,0,1-1-.54c-.32-.21-.53-.42-.86-.64h0a2.55,2.55,0,0,1-.64-.86c-.21-.32-.32-.64-.53-1h0c-.11-.32-.22-.75-.33-1.18a5.62,5.62,0,0,1-.1-1.29v-.21a6,6,0,0,1,.1-1.39c.11-.43.22-.86.33-1.18h0a4.23,4.23,0,0,1,.53-1A5.72,5.72,0,0,1,99.13,7,4.63,4.63,0,0,1,101,5.89l1-.32h1.18a3.2,3.2,0,0,1,1.07.11l1,.32h0a4.29,4.29,0,0,1,1,.54c.32.21.53.43.86.64h0a2.65,2.65,0,0,1,.64.86c.21.32.32.64.53,1h0c.11.32.22.75.33,1.18a5.62,5.62,0,0,1,.1,1.29v.1"/><path class="cls-1" d="M132.14,13.82a5.46,5.46,0,0,0-1.18-2h0A7,7,0,0,0,129,10.18a8.6,8.6,0,0,0-2.68-1h0l-2.78-.65h0a4.21,4.21,0,0,1-.75-.32h0a.82.82,0,0,0-.43-.21h0l-.22-.22h0c0-.1-.1-.1-.1-.21h0c0-.11-.11-.22-.11-.32V7h0a.4.4,0,0,1,.11-.33h0c0-.1.1-.21.1-.32h0c.11-.1.11-.21.22-.32l.32-.32c.11-.11.21-.11.32-.21s.22-.11.43-.11a2.87,2.87,0,0,1,1-.11h.11a1.76,1.76,0,0,1,.75.11,1.56,1.56,0,0,1,.64.21c.22.11.33.11.43.22h0l.11.1.11.11.1.11h0a.11.11,0,0,0,.11.11c.11.1.11.21.22.32s.32.53.42.75.11.1.11.1a.34.34,0,0,0,.22.11h.1l4.29-.43s.11,0,.11-.1.1-.11.1-.22.11-.11.11-.21V6.43a8.3,8.3,0,0,0-.64-2.14,9.55,9.55,0,0,0-1.29-1.93,4.09,4.09,0,0,0-1.07-.86,5.79,5.79,0,0,0-1.39-.75A10.89,10.89,0,0,0,124.64,0h-.22a8.24,8.24,0,0,0-2.89.43A7.53,7.53,0,0,0,119,1.82a4.94,4.94,0,0,0-1.07,1.07A12.06,12.06,0,0,0,117,4.07a5.3,5.3,0,0,0-.54,1.4,6.61,6.61,0,0,0-.21,1.5v.1h0a7.74,7.74,0,0,0,.32,2.25,5.48,5.48,0,0,0,1.07,1.93,8.56,8.56,0,0,0,1.82,1.61h0a8.26,8.26,0,0,0,2.47,1h0l2.79.65h0a7.05,7.05,0,0,1,.85.32,1.06,1.06,0,0,1,.54.43h0l.21.21h0c0,.11.11.11.11.22h0c0,.1,0,.21.11.21v.32h0a.37.37,0,0,1-.11.32c0,.11-.11.22-.11.33h0a.23.23,0,0,1-.21.21c-.11.11-.22.21-.32.21h0c-.11.11-.22.11-.32.22s-.22.11-.43.11a3.54,3.54,0,0,1-1.07.1h-.11a3.53,3.53,0,0,1-1.61-.32l-.64-.32a1.85,1.85,0,0,1-.54-.43h0a2.46,2.46,0,0,1-.43-.53h0v-.22c0-.11-.1-.11-.1-.21a.81.81,0,0,1-.22-.43c0-.11-.11-.11-.11-.22s-.1-.1-.21-.1h-.54c-.32,0-.85.1-1.28.1-1,.11-2.15.11-2.57.22h-.22a.11.11,0,0,0-.11.11c-.1,0-.1.1-.21.21s-.11.11-.11.21h0c0,.33,0,.65.11.75a1.65,1.65,0,0,0,.21.65c.11.1.11.32.22.53A8.8,8.8,0,0,0,117.24,20a5.72,5.72,0,0,0,1.18,1.07,6.58,6.58,0,0,0,1.5.75,11.92,11.92,0,0,0,3.65.75h.21a10,10,0,0,0,3.22-.43,7.53,7.53,0,0,0,2.57-1.39h0a4.94,4.94,0,0,0,1.07-1.07,4.32,4.32,0,0,0,.75-1.18c.21-.43.32-.86.54-1.29a5.64,5.64,0,0,0,.21-1.39v-.11h0A1.78,1.78,0,0,0,132.14,13.82Z"/><path class="cls-1" d="M148.75,1h0V.75a.11.11,0,0,0-.11-.11l-.1-.1H134.82c-.11,0-.11.1-.21.21a.11.11,0,0,1-.11.11h0V1l-.11,21h0v.21a.11.11,0,0,0,.11.11l.11.11h13.71a.11.11,0,0,0,.11-.11l.11-.11v-4.6h0v-.22c0-.11-.11-.11-.22-.21a.1.1,0,0,1-.1-.11h-7.93a.4.4,0,0,1-.33-.11.4.4,0,0,1-.1-.32V14.36A.41.41,0,0,1,140,14a.4.4,0,0,1,.33-.11h7.18c.1,0,.1-.11.1-.11l.11-.1V9.43h0V9.22a.11.11,0,0,0-.11-.11l-.1-.11h-7.18a.37.37,0,0,1-.43-.43V6.32A.42.42,0,0,1,140,6a.4.4,0,0,1,.33-.11h7.93a.1.1,0,0,0,.1-.1l.11-.11V5.47L148.75,1Z"/><path class="cls-1" d="M45.65,35.89h0a10.22,10.22,0,0,0-2.35-3.65,10.56,10.56,0,0,0-3.65-2.46h0a11.34,11.34,0,0,0-4.39-.86H35a11.73,11.73,0,0,0-4.28.75,13.19,13.19,0,0,0-3.65,2.25h0a11.78,11.78,0,0,0-1.5,1.72,16.08,16.08,0,0,0-1.07,1.93,7.19,7.19,0,0,0-.64,2.14,17.12,17.12,0,0,0-.22,2.36v.21h0a15.65,15.65,0,0,0,.22,2.36,8.3,8.3,0,0,0,.64,2.14,15.15,15.15,0,0,0,1,1.93,10.57,10.57,0,0,0,1.39,1.72h0a10.38,10.38,0,0,0,3.64,2.46h0a11.43,11.43,0,0,0,4.4.86h.21A11.58,11.58,0,0,0,39.44,51a13.14,13.14,0,0,0,3.64-2.25A11.22,11.22,0,0,0,44.58,47a16.08,16.08,0,0,0,1.07-1.93A6.92,6.92,0,0,0,46.3,43a18.8,18.8,0,0,0,.21-2.36v-.21h0A15.17,15.17,0,0,0,45.65,35.89ZM40.51,40.5h0A7.65,7.65,0,0,1,40.08,43a4.92,4.92,0,0,1-.53,1,2.68,2.68,0,0,1-.75.75,8.07,8.07,0,0,1-1.72,1.07,6.37,6.37,0,0,1-2,.32h-.1a4.38,4.38,0,0,1-2-.43h0a5.69,5.69,0,0,1-1.82-1.18,3.32,3.32,0,0,1-.64-.75c-.22-.32-.33-.64-.54-1h0a7.88,7.88,0,0,1-.43-2.36v-.21a5.56,5.56,0,0,1,.11-1.4c.11-.43.21-.75.32-1.18a4.23,4.23,0,0,1,.54-1,2.34,2.34,0,0,1,.75-.75h0a7.29,7.29,0,0,1,1.71-1.07,6.1,6.1,0,0,1,2-.32H35a4.37,4.37,0,0,1,2,.42A4.7,4.7,0,0,1,38.8,36.1c.21.22.42.54.64.75a4.12,4.12,0,0,1,.43,1,7.93,7.93,0,0,1,.43,2.46c.21.11.21.11.21.22"/><path class="cls-1" d="M62.69,34.71a.11.11,0,0,1,.11-.11V30h0v-.21c0-.11-.11-.11-.11-.21a.34.34,0,0,0-.21-.11H48.65a.23.23,0,0,0-.21.21h0a.11.11,0,0,1-.11.11h0v21h0V51a.23.23,0,0,0,.22.21.1.1,0,0,1,.1.11h5c.11,0,.11-.11.22-.11A.35.35,0,0,0,54,51V43.93a.4.4,0,0,1,.11-.33.41.41,0,0,1,.32-.1h7c.11,0,.11-.11.21-.11a.38.38,0,0,0,.11-.21V38.67h0v-.21a.23.23,0,0,0-.21-.21.11.11,0,0,1-.11-.11H54.55a.37.37,0,0,1-.32-.11.38.38,0,0,1-.11-.32V35.35a.39.39,0,0,1,.11-.32.37.37,0,0,1,.32-.11h8c0-.1.1-.1.1-.21"/><path class="cls-1" d="M70.73,38.25a.38.38,0,0,1-.32-.11.39.39,0,0,1-.11-.32V35.35a.39.39,0,0,1,.11-.32.38.38,0,0,1,.32-.11h8c.11,0,.11-.1.21-.1a.38.38,0,0,0,.11-.22V30h0v-.21a.23.23,0,0,0-.21-.21.11.11,0,0,1-.11-.11H65.05a.23.23,0,0,0-.21.21.11.11,0,0,1-.11.11v21h0V51a.23.23,0,0,0,.21.21.11.11,0,0,1,.11.11h5c.11,0,.11-.11.21-.11a.34.34,0,0,0,.11-.21V43.93a.4.4,0,0,1,.11-.33.4.4,0,0,1,.32-.1h7c.1,0,.1-.11.21-.11a.38.38,0,0,0,.11-.21V38.67h0v-.21a.23.23,0,0,0-.22-.21.1.1,0,0,1-.1-.11H70.73Z"/><path class="cls-1" d="M93.88,37.82H87a.39.39,0,0,1-.43-.43v-2A.39.39,0,0,1,86.7,35a.38.38,0,0,1,.32-.11h7.83c.1,0,.1-.1.21-.1a.38.38,0,0,0,.11-.22V30h0v-.21c0-.11-.11-.11-.11-.21a.38.38,0,0,0-.21-.11H81.23a.23.23,0,0,0-.21.21h0a.11.11,0,0,1-.11.11v21h0V51a.23.23,0,0,0,.22.21.1.1,0,0,1,.1.11H94.85c.1,0,.1-.11.21-.11a.34.34,0,0,0,.11-.21V46.39h0v-.21A.24.24,0,0,0,95,46h0a.1.1,0,0,1-.1-.1H87.13a.37.37,0,0,1-.32-.11.39.39,0,0,1-.11-.32v-2a.38.38,0,0,1,.11-.32.37.37,0,0,1,.32-.11H94.2c.11,0,.11-.11.22-.11a.35.35,0,0,0,.1-.21V38.35h0v-.21a.23.23,0,0,0-.21-.22s-.11,0-.11-.1h-.32"/><path class="cls-1" d="M111.35,30h0v-.21c0-.11-.11-.11-.11-.21a.38.38,0,0,0-.21-.11H97.42c-.11,0-.11.11-.22.11a.35.35,0,0,0-.1.21V50.89h0v.22a.23.23,0,0,0,.21.21.11.11,0,0,1,.11.11H111c.1,0,.1-.11.21-.11a.38.38,0,0,0,.11-.21V46.5h0v-.22a.24.24,0,0,0-.22-.21A.1.1,0,0,1,111,46h-7.72a.41.41,0,0,1-.32-.1.4.4,0,0,1-.11-.33v-2a.37.37,0,0,1,.11-.32.38.38,0,0,1,.32-.11h7.07c.11,0,.11-.11.22-.11a.38.38,0,0,0,.11-.21V38.46h0v-.21a.24.24,0,0,0-.22-.22.11.11,0,0,1-.11-.11h-7a.4.4,0,0,1-.32-.1.39.39,0,0,1-.11-.32V35.35a.39.39,0,0,1,.11-.32.37.37,0,0,1,.32-.11h7.82c.11,0,.11-.1.22-.1a.4.4,0,0,0,.1-.22V30Z"/><path class="cls-1" d="M13.61,34.92h0a5,5,0,0,1,1,.54,5.69,5.69,0,0,1,.85.64h0a2.64,2.64,0,0,1,.65.86c.21.32.32.64.53,1,0,.11,0,.11.11.22H22.4c-.11-.43-.11-.75-.22-1.07s-.1-.65-.21-1a16.48,16.48,0,0,0-1-1.93,10.55,10.55,0,0,0-1.4-1.71A10.55,10.55,0,0,0,16,30h0a7.16,7.16,0,0,0-2.15-.64,15.56,15.56,0,0,0-2.25-.21h-.21a11.62,11.62,0,0,0-4.29.75,12.68,12.68,0,0,0-3.64,2.25h0a11.14,11.14,0,0,0-1.5,1.71A17.78,17.78,0,0,0,.86,35.78a7.2,7.2,0,0,0-.65,2.14A18.8,18.8,0,0,0,0,40.28v.22a17.11,17.11,0,0,0,.21,2.35A7.36,7.36,0,0,0,.86,45a16.48,16.48,0,0,0,1,1.93,10.55,10.55,0,0,0,1.4,1.71,10.55,10.55,0,0,0,3.64,2.47A7.19,7.19,0,0,0,9,51.75a15.56,15.56,0,0,0,2.25.21h.22a11.53,11.53,0,0,0,4.28-.75A12.6,12.6,0,0,0,19.4,49a11.7,11.7,0,0,0,1.5-1.71A16.89,16.89,0,0,0,22,45.32l.32-1c.11-.32.11-.75.22-1.17V43H16.83c0,.11-.11.22-.11.32a4.29,4.29,0,0,1-.54,1,5.2,5.2,0,0,1-.75.85,4.57,4.57,0,0,1-1.82,1.08l-1,.32a3.61,3.61,0,0,1-1.08.11h-.1a3.2,3.2,0,0,1-1.07-.11l-1-.32h0a4.23,4.23,0,0,1-1-.54A5.34,5.34,0,0,1,7.61,45h0A2.49,2.49,0,0,1,7,44.14c-.22-.32-.33-.64-.54-1s-.21-.75-.32-1.18A5.12,5.12,0,0,1,6,40.71V40.5a5.56,5.56,0,0,1,.11-1.4c.11-.43.21-.85.32-1.18A4.23,4.23,0,0,1,7,37a4.8,4.8,0,0,1,.75-.86A4.66,4.66,0,0,1,9.54,35l1-.32a3.54,3.54,0,0,1,1.07-.11h.11a3.2,3.2,0,0,1,1.07.11,1,1,0,0,1,.86.21"/></g></g></svg>