<?xml version="1.0" encoding="utf-8"?>
<!-- Generator: Adobe Illustrator 25.2.1, SVG Export Plug-In . SVG Version: 6.00 Build 0)  -->
<svg version="1.1" xmlns="http://www.w3.org/2000/svg" xmlns:xlink="http://www.w3.org/1999/xlink" x="0px" y="0px"
	 viewBox="0 0 700.275 466.849" style="enable-background:new 0 0 700.275 466.849;" xml:space="preserve">
<style type="text/css">
	.st0{clip-path:url(#SVGID_2_);}
	.st1{clip-path:url(#SVGID_4_);}
	.st2{fill:#FFFFFF;}
	.st3{fill:none;stroke:#FFFFFF;stroke-width:3.4646;stroke-miterlimit:10;}
	.st4{fill:none;stroke:#FFFFFF;stroke-width:2.5378;stroke-miterlimit:10;}
	.st5{fill:none;stroke:#FFFFFF;stroke-width:3.8914;stroke-miterlimit:10;}
	.st6{fill:none;stroke:#FFFFFF;stroke-width:2.8505;stroke-miterlimit:10;}
</style>
<g id="写真">
</g>
<g id="レイヤー_1">
	<g>
		<g>
			<path class="st2" d="M0,466.849l700.275,0l0-466.849L0,0L0,466.849z M693.471,460.044l-686.653,0l0-453.244l686.653,0
				L693.471,460.044z"/>
			<path class="st2" d="M58.358,427.948l583.568,0l0-389.043l-583.568,0L58.358,427.948z M635.104,421.13l-569.937,0l0-375.411
				l569.937,0L635.104,421.13z"/>
			<path class="st2" d="M178.075,223.415c0,5.424-2.307,9.864-8.177,9.864c-4.79,0-3.99-2.05-3.99-3.925v-13.317
				c0-1.774-0.087-2.836,3.374-2.836C175.234,213.201,178.075,217.83,178.075,223.415 M145.476,252.207
				c0,7.277-6.494,4.244-6.494,9.152c0,5.778,13.155,5.869,16.887,5.869c4.008,0,16.787-0.267,16.787-6.053
				c0-5.148-6.486-0.533-6.748-11.638v-5.144c0-0.983,0.354-1.434,1.416-1.434c2.412,0,5.065,0.45,7.749,0.45
				c12.338,0,23.543-7.102,23.543-20.357c0-13.317-11.66-19.728-23.749-19.728c-1.932,0-11.538,1.342-24.413,1.342
				c-2.233,0-4.357-0.179-6.582-0.179c-2.771,0-6.682,0.712-6.682,4.279c0,5.59,8.286,2.036,8.286,8.714L145.476,252.207z"/>
			<path class="st2" d="M253.096,244.739c0,4.799-2.325,9.519-7.74,9.519c-9.602,0-14.916-21.249-14.916-28.792
				c0-4.353,2.474-9.501,7.452-9.501C248.284,215.964,253.096,236.645,253.096,244.739 M240.929,267.482
				c18.115,0,35.015-12.595,35.015-31.725c0-11.446-9.427-33.049-33.958-33.049c-19.374,0-34.386,13.334-34.386,32.166
				C207.6,253.803,222.171,267.482,240.929,267.482"/>
			<path class="st2" d="M309.904,226.354c-0.188,2.303-0.634,4.274,2.299,4.274c5.782,0,7.653-3.204,7.653-8.728
				c0-4.34-1.062-8.78-6.232-8.78c-3.3,0-3.199,2.028-3.396,4.799L309.904,226.354z M289.276,222.451
				c0-13.775-6.739-8.098-6.739-13.601c0-4.895,6.91-5.524,10.463-5.524c3.649,0,7.29,0.629,10.952,0.629
				c5.682,0,11.459-0.629,17.233-0.629c10.026,0,21.681,4.453,21.681,16.271c0,5.332-2.578,10.493-7.552,12.879
				c-0.804,0.455-1.438,0.721-1.438,1.783c0,1.329,1.158,1.674,2.229,2.128c6.206,2.303,8.981,6.407,10.222,15.996
				c1.08,8.26,6.84,3.282,6.84,8.719c0,3.352-4.086,6.931-14.143,6.931c-14.204,0-15.987-8.186-18.732-19.929
				c-0.983-4.078-2.5-8.081-7.377-8.081c-1.984,0-2.688,0.266-2.688,5.882c0,2.561,0.197,6.114,0.634,8.618
				c0.717,4.082,5.271,2.823,5.271,7.102c0,3.203-2.233,5.598-16.629,5.598c-4.253,0-16.892,0-16.892-6.494
				c0-4.624,6.665-1.407,6.665-12.971L289.276,222.451z"/>
			<path class="st2" d="M520.165,217.919c0.201-2.771,0.092-4.799,3.391-4.799c5.161,0,6.202,4.44,6.202,8.78
				c0,5.524-1.862,8.728-7.653,8.728c-2.906,0-2.478-1.971-2.277-4.274L520.165,217.919z M499.187,247.755
				c0,11.564-6.669,8.352-6.669,12.976c0,6.494,12.622,6.494,16.9,6.494c14.379,0,16.621-2.395,16.621-5.599
				c0-4.279-4.536-3.02-5.258-7.102c-0.415-2.504-0.616-6.057-0.616-8.618c0-5.616,0.708-5.887,2.679-5.887
				c4.864,0,6.376,4.008,7.373,8.085c2.749,11.743,4.532,19.929,18.749,19.929c10.026,0,14.112-3.579,14.112-6.931
				c0-5.437-5.76-0.459-6.831-8.719c-1.237-9.589-4.008-13.692-10.227-15.996c-1.075-0.455-2.216-0.8-2.216-2.128
				c0-1.062,0.621-1.329,1.42-1.783c4.965-2.386,7.548-7.548,7.548-12.88c0-11.817-11.647-16.271-21.681-16.271
				c-5.769,0-11.542,0.629-17.241,0.629c-3.645,0-7.277-0.629-10.926-0.629c-3.549,0-10.489,0.629-10.489,5.524
				c0,5.502,6.752-0.175,6.752,13.601V247.755z"/>
			<path class="st2" d="M394.511,203.953c3.82,0,5.616-0.345,6.944-0.629c1.246-0.337,1.954-0.616,3.649-0.616
				c3.466,0,10.637,6.848,10.637,16.454c0,4.44-2.294,7.36-6.822,7.36c-7.736,0-7.639-10.476-12.167-10.476
				c-3.47,0-3.107,4.794-3.107,5.502v27.28c0,10.576,8.146,5.507,8.146,11.726c0,2.745-1.665,6.674-18.299,6.674
				c-4.528,0-21.135,0.175-21.135-6.674c0-4.716,5.494-2.854,7.281-6.219c0.887-1.849,1.25-7.198,1.32-9.405l0.712-19.636
				c0.367-9.331-1.495-9.248-2.753-9.248c-3.99,0-5.961,10.476-13.142,10.476c-3.466,0-5.52-3.199-5.52-6.394
				c0-7.552,6.403-17.42,11.459-17.42c0.642,0,1.608,0.28,3.3,0.616c1.687,0.284,4.086,0.629,7.653,0.629H394.511z"/>
			<path class="st2" d="M462.355,203.953c11.922,0,13.605-1.766,15.025-1.766c5.07,0,7.172,8.693,7.172,12.604
				c0,2.924-1.128,6.394-4.615,6.394c-7.019,0-1.311-8.535-18.211-8.535c-9.86,0-8.867,1.783-8.867,12.023
				c0,5.148,0.266,5.323,5.681,5.323c6.752,0,1.691-9.868,8.015-9.868c5.131,0,5.48,10.043,5.48,13.5
				c0,3.649-0.616,14.304-5.939,14.304c-5.507,0,0-9.318-8.977-9.318c-3.741,0-3.645,3.387-3.645,6.206
				c0,12.971,0.896,12.359,10.214,12.359c18.229,0,13.08-12.53,20.357-12.53c2.841,0,4.257,3.199,4.257,5.686
				c0,6.049-4.794,16.892-8.365,16.892c-0.599,0-2.019-0.267-3.894-0.52c-1.958-0.188-4.449-0.468-7.478-0.468l-36.51,0
				c-5.869,0-5.952-2.653-5.952-3.807c0-4.89,6.044-0.979,6.66-10.415c1.075-16.166,1.167-14.571,0.267-30.654
				c-0.612-13.588-7.368-6.573-7.368-12.893c0-5.402,7.469-4.519,11.11-4.519L462.355,203.953z"/>
			<path class="st2" d="M230.621,173.797l-127.519,0l0,122.559l127.423,0l119.613,70.363l119.604-70.363l127.436,0l0-122.559
				l-127.515,0L350.138,103.5L230.621,173.797z M350.138,111.392l106.095,62.405l-212.186,0L350.138,111.392z M350.138,358.813
				l-106.183-62.457l212.361,0L350.138,358.813z M109.902,180.606l480.467,0v108.941l-480.467,0L109.902,180.606z"/>
			<polygon class="st2" points="114.29,55.691 118.905,55.691 106.869,76.385 106.869,94.644 101.843,94.644 101.843,76.385 
				89.388,55.691 95.222,55.691 104.859,71.359 			"/>
			<path class="st2" d="M131.542,88.194c-2.273-3.081-3.422-7.425-3.422-13.054c0-5.76,1.149-10.104,3.422-13.054
				c1.879-2.408,4.41-3.619,7.644-3.619c3.199,0,5.677,1.211,7.421,3.619c2.273,2.95,3.409,7.294,3.409,13.054
				c0,5.629-1.136,9.973-3.409,13.054c-1.744,2.412-4.222,3.619-7.421,3.619C135.952,91.812,133.422,90.606,131.542,88.194
				 M150.61,90.392c3.09-3.47,4.637-8.562,4.637-15.253c0-6.433-1.547-11.581-4.637-15.462c-2.946-3.488-6.752-5.231-11.424-5.231
				c-4.707,0-8.513,1.744-11.468,5.231c-3.208,3.348-4.812,8.505-4.812,15.462c0,6.691,1.538,11.783,4.628,15.253
				c2.941,3.632,6.809,5.428,11.652,5.428C143.985,95.82,147.809,94.024,150.61,90.392"/>
			<path class="st2" d="M163.491,85.783l5.008,0c0,2.01,0.542,3.418,1.617,4.209c1.468,1.219,3.597,1.822,6.411,1.822
				c2.552,0,4.423-0.682,5.629-2.01c1.337-1.355,2.01-3.029,2.01-5.022c0-1.613-0.463-2.871-1.407-3.811
				c-1.075-1.088-3.807-2.548-8.238-4.423c-3.606-1.473-6.158-3.147-7.613-5.026c-1.617-1.875-2.417-4.008-2.417-6.42
				c0-3.081,1.128-5.629,3.4-7.626c2.141-2.01,5.297-3.029,9.449-3.029c3.61,0,6.363,0.739,8.229,2.225
				c1.748,1.329,2.618,3.203,2.618,5.616h-5.223c0-1.342-0.463-2.268-1.399-2.815c-0.944-0.669-2.565-1.005-4.838-1.005
				c-1.997,0-3.741,0.538-5.214,1.608c-1.066,1.206-1.6,2.679-1.6,4.423c0,1.726,0.59,3.269,1.814,4.624
				c1.049,0.791,3.863,2.198,8.422,4.209c3.623,1.744,6.027,3.418,7.229,5.026c1.333,1.744,2.015,3.807,2.015,6.219
				c0,3.217-1.084,5.896-3.217,8.041c-2.137,2.133-5.362,3.203-9.65,3.203c-4.287,0-7.561-0.94-9.833-2.819
				C164.553,91.263,163.491,88.864,163.491,85.783"/>
			<polygon class="st2" points="220.08,94.643 220.08,76.977 202.607,76.977 202.607,94.643 197.393,94.643 197.393,55.689 
				202.607,55.689 202.607,72.952 220.08,72.952 220.08,55.689 224.905,55.689 224.905,94.643 			"/>
			<rect x="233.571" y="55.692" class="st2" width="5.227" height="38.953"/>
			<path class="st2" d="M269.65,62.314c2.565,2.561,3.824,6.901,3.824,13.05c0,5.498-1.062,9.318-3.195,11.45
				c-2.146,2.412-5.564,3.619-10.257,3.619h-5.616l0-30.719l5.616,0C264.716,59.713,267.919,60.587,269.65,62.314 M272.473,91.237
				c4.152-3.483,6.215-8.898,6.215-16.258c0-7.368-1.976-12.718-6.018-16.07c-2.539-2.146-6.818-3.217-12.849-3.217l-10.642,0
				l0,38.949l11.254,0C265.778,94.641,269.79,93.514,272.473,91.237"/>
			<path class="st2" d="M298.798,61.913l6.621,18.08l-13.845,0L298.798,61.913z M316.267,94.642l-14.444-38.953l-5.035,0
				l-15.655,38.953l4.628,0l4.401-10.629l16.878,0l3.82,10.629H316.267z"/>
			<path class="st2" d="M337.5,62.087c0-1.075,0.415-2.067,1.211-3.002c0.673-0.682,1.543-1.018,2.613-1.018
				c0.957,0,1.923,0.336,3.016,1.018c0.673,0.791,0.992,1.674,0.992,2.6c0,0.94-0.319,2.01-0.992,3.217
				c-0.935,1.324-2.343,2.548-4.217,3.605C338.382,65.972,337.5,63.826,337.5,62.087 M350.969,92.71
				c0.131,0.065,0.323,0.24,0.608,0.507c0.253,0.275,0.485,0.537,0.704,0.795c0.184,0.267,0.293,0.468,0.293,0.599h6.621
				c-2.539-2.408-4.549-4.62-6.031-6.617c2.954-4.292,4.44-9.449,4.44-15.454h-4.44c0,3.741-0.188,6.342-0.59,7.827
				c-0.407,1.586-1.084,3.068-2.015,4.41c-2.95-3.475-5.751-7.762-8.431-12.858c2.277-1.337,4.086-2.998,5.415-5.008
				c1.359-1.739,2.028-3.619,2.028-5.629c0-1.744-0.739-3.352-2.229-4.812c-1.324-1.342-3.274-2.028-5.804-2.028
				c-2.675,0-4.838,0.822-6.433,2.417c-1.608,1.608-2.421,3.483-2.421,5.616c0,0.817,0.214,1.753,0.621,2.828
				c0.258,0.922,1.001,2.548,2.198,4.812l0.402,0.603c-2.679,1.473-4.834,3.418-6.433,5.83c-1.735,2.142-2.609,4.611-2.609,7.417
				c0,3.356,1.21,6.171,3.619,8.439c2.281,2.277,5.218,3.418,8.824,3.418c4.029,0,7.513-1.473,10.463-4.414l1.005,1.21
				C350.772,92.618,350.842,92.644,350.969,92.71 M347.342,88.396c-2.937,2.264-5.476,3.418-7.622,3.418
				c-2.281,0-4.156-0.817-5.633-2.426c-1.595-1.46-2.395-3.339-2.395-5.616c0-1.744,0.516-3.54,1.613-5.415
				c0.927-1.879,2.469-3.282,4.611-4.222C340.183,78.288,343.334,83.034,347.342,88.396"/>
			<path class="st2" d="M392.71,86.184h4.418c0,2.155-0.73,4.148-2.211,6.018c-2.141,2.421-5.345,3.619-9.637,3.619
				c-4.96,0-8.894-1.739-11.835-5.214c-3.217-3.483-4.821-8.645-4.821-15.467c0-6.958,1.604-12.115,4.821-15.462
				c2.941-3.488,6.875-5.231,11.835-5.231c4.152,0,7.233,1.018,9.243,3.029c1.757,2.264,2.605,4.48,2.605,6.621l-4.418,0
				c0-1.875-0.603-3.282-1.801-4.222c-1.337-0.94-3.155-1.407-5.441-1.407c-3.461,0-6.202,1.136-8.208,3.418
				c-2.281,3.217-3.409,7.64-3.409,13.255c0,5.76,1.128,10.174,3.409,13.255c2.006,2.399,4.694,3.606,8.02,3.606
				c2.281,0,4.152-0.538,5.629-1.608C392.107,89.335,392.71,87.928,392.71,86.184"/>
			<path class="st2" d="M412.625,88.194c-2.29-3.081-3.409-7.425-3.409-13.054c0-5.76,1.119-10.104,3.409-13.054
				c1.875-2.408,4.405-3.619,7.631-3.619c3.199,0,5.69,1.211,7.434,3.619c2.277,2.95,3.418,7.294,3.418,13.054
				c0,5.629-1.141,9.973-3.418,13.054c-1.744,2.412-4.235,3.619-7.434,3.619C417.031,91.812,414.5,90.606,412.625,88.194
				 M431.702,90.392c3.072-3.47,4.619-8.562,4.619-15.253c0-6.433-1.547-11.581-4.619-15.462c-2.959-3.488-6.765-5.231-11.446-5.231
				c-4.698,0-8.496,1.744-11.442,5.231c-3.221,3.348-4.821,8.505-4.821,15.462c0,6.691,1.538,11.783,4.615,15.253
				c2.941,3.632,6.84,5.428,11.647,5.428C425.076,95.82,428.883,94.024,431.702,90.392"/>
			<polygon class="st2" points="457.412,88.823 447.788,65.127 447.788,94.645 443.37,94.645 443.37,55.692 448.405,55.692 
				460.039,83.596 471.091,55.692 475.908,55.692 475.908,94.645 471.48,94.645 471.48,64.524 462.241,88.823 			"/>
			<path class="st2" d="M501.578,61.322c1.206,0.94,1.796,2.662,1.796,5.214c0,2.277-0.664,4.292-1.997,6.027
				c-1.333,1.879-4.209,2.806-8.627,2.806h-3.212l0-15.655l5.616,0C498.091,59.714,500.241,60.251,501.578,61.322 M504.799,75.569
				c2.543-2.399,3.824-5.48,3.824-9.235c0-4.021-1.281-6.888-3.824-8.632c-1.757-1.342-5.03-2.01-9.847-2.01l-10.629,0v38.949h5.214
				V79.188h4.602C498.694,79.188,502.26,77.982,504.799,75.569"/>
			<path class="st2" d="M523.668,61.913l6.621,18.08h-13.863L523.668,61.913z M541.132,94.642l-14.44-38.953h-5.048L505.99,94.642
				h4.633l4.405-10.629l16.878,0l3.824,10.629H541.132z"/>
			<polygon class="st2" points="569.89,94.642 551.014,63.722 551.014,94.642 546.193,94.642 546.193,55.689 551.202,55.689 
				570.292,86.413 570.292,55.689 574.697,55.689 574.697,94.642 			"/>
			<polygon class="st2" points="606.274,55.691 610.889,55.691 598.844,76.385 598.844,94.644 593.836,94.644 593.836,76.385 
				581.367,55.691 587.206,55.691 596.847,71.359 			"/>
			<polygon class="st2" points="166.21,378.432 153.78,378.432 153.78,409.999 148.999,409.999 148.999,378.432 136.373,378.432 
				136.373,374.8 166.21,374.8 			"/>
			<path class="st2" d="M182.425,404.272c-2.294-2.815-3.444-6.765-3.444-11.857c0-5.231,1.149-9.182,3.444-11.866
				c1.787-2.15,4.196-3.238,7.255-3.238c3.186,0,5.612,1.088,7.272,3.238c2.29,2.683,3.431,6.634,3.431,11.866
				c0,5.091-1.141,9.042-3.431,11.857c-1.661,2.163-4.086,3.26-7.272,3.26C186.62,407.532,184.212,406.435,182.425,404.272
				 M200.973,406.378c2.924-3.186,4.401-7.84,4.401-13.963c0-5.856-1.477-10.528-4.401-13.959
				c-2.937-3.186-6.704-4.781-11.293-4.781c-4.458,0-8.151,1.595-11.075,4.781c-3.068,3.064-4.602,7.709-4.602,13.959
				c0,6.123,1.464,10.777,4.401,13.963c2.924,3.177,6.695,4.786,11.276,4.786C194.408,411.164,198.158,409.555,200.973,406.378"/>
			<polygon class="st2" points="245.333,409.997 239.219,409.997 222,391.633 222,409.997 217.026,409.997 217.026,374.798 
				222,374.798 222,391.633 237.488,374.798 242.842,374.798 227.546,391.248 			"/>
			<polygon class="st2" points="277.219,374.799 281.817,374.799 269.964,393.54 269.964,409.998 265.183,409.998 265.183,393.54 
				253.13,374.799 258.671,374.799 268.05,388.959 			"/>
			<path class="st2" d="M299.503,404.272c-2.307-2.815-3.457-6.765-3.457-11.857c0-5.231,1.149-9.182,3.457-11.866
				c1.77-2.15,4.204-3.238,7.259-3.238c3.173,0,5.607,1.088,7.268,3.238c2.29,2.683,3.426,6.634,3.426,11.866
				c0,5.091-1.136,9.042-3.426,11.857c-1.661,2.163-4.095,3.26-7.268,3.26C303.708,407.532,301.273,406.435,299.503,404.272
				 M318.038,406.378c2.919-3.186,4.397-7.84,4.397-13.963c0-5.856-1.477-10.528-4.397-13.959
				c-2.924-3.186-6.691-4.781-11.276-4.781c-4.475,0-8.16,1.595-11.092,4.781c-3.055,3.064-4.589,7.709-4.589,13.959
				c0,6.123,1.464,10.777,4.397,13.963c2.928,3.177,6.687,4.786,11.284,4.786C311.469,411.164,315.232,409.555,318.038,406.378"/>
			<polygon class="st2" points="345.745,395.879 345.745,390.91 347.292,389.371 352.633,389.371 354.167,390.91 354.167,395.879 
				352.633,397.413 347.292,397.413 			"/>
			<path class="st2" d="M379.458,404.06h4.764c0,1.272,0.45,2.098,1.35,2.487c1.014,0.634,2.168,0.953,3.448,0.953
				c1.905,0,3.3-0.572,4.196-1.709c0.642-1.023,0.961-3.322,0.961-6.896l0-24.094h4.965v24.282c0,2.806-0.319,5.175-0.957,7.076
				c-0.629,1.416-1.656,2.622-3.046,3.636c-1.805,0.9-3.715,1.337-5.756,1.337c-3.195,0-5.664-0.634-7.469-1.91
				C380.275,407.95,379.458,406.232,379.458,404.06"/>
			<path class="st2" d="M430.296,380.348l6.507,16.446h-13.382L430.296,380.348z M447.314,409.997l-13.95-35.199h-4.974
				l-15.104,35.199h4.388l4.2-9.571h16.45l3.828,9.571H447.314z"/>
			<path class="st2" d="M476.282,379.774c1.141,0.883,1.705,2.491,1.705,4.768c0,2.054-0.634,3.903-1.919,5.568
				c-1.407,1.648-4.2,2.474-8.409,2.474h-3.247v-14.151l5.537,0C472.75,378.432,474.861,378.887,476.282,379.774 M479.332,392.772
				c2.421-2.155,3.614-4.973,3.614-8.417c0-3.562-1.193-6.18-3.614-7.84c-1.661-1.132-4.851-1.713-9.571-1.713h-10.31l0,35.195h4.96
				v-13.968h4.589C473.467,396.028,476.898,394.944,479.332,392.772"/>
			<path class="st2" d="M506.577,380.348l6.499,16.446h-13.378L506.577,380.348z M523.608,409.997l-13.981-35.199h-4.973
				l-15.1,35.199h4.392l4.209-9.571h16.446l3.833,9.571H523.608z"/>
			<polygon class="st2" points="559.126,409.997 540.766,382.062 540.766,409.997 536.168,409.997 536.168,374.798 540.954,374.798 
				559.502,402.528 559.502,374.798 563.898,374.798 563.898,409.997 			"/>
		</g>
	</g>
</g>
</svg>
