<svg xmlns="http://www.w3.org/2000/svg" width="249.943" height="249.943" viewBox="0 0 249.943 249.943"><defs><style>.a{fill:#fff;}</style></defs><g transform="translate(0 0)"><path class="a" d="M1546.234,899.887a124.972,124.972,0,1,1,124.972-124.972A125.116,125.116,0,0,1,1546.234,899.887Zm0-247.455a122.483,122.483,0,1,0,122.484,122.483A122.62,122.62,0,0,0,1546.234,652.432Z" transform="translate(-1421.262 -649.944)"/><g transform="translate(14.682 14.682)"><path class="a" d="M1538.85,877.82a110.289,110.289,0,1,1,110.29-110.287A110.413,110.413,0,0,1,1538.85,877.82Zm0-218.091a107.8,107.8,0,1,0,107.8,107.8A107.926,107.926,0,0,0,1538.85,659.729Z" transform="translate(-1428.561 -657.243)"/></g><path class="a" d="M1463.689,687.335c2.126,1.931,3.044,4.413.953,6.716-1.7,1.871-2.225.833-2.961.167l-5.214-4.739c-.7-.635-1.144-.979.084-2.335C1458.675,684.809,1461.5,685.348,1463.689,687.335Zm-.324,23.02c2.853,2.593-.649,4.063,1.275,5.807,2.265,2.058,6.986-3.067,8.313-4.528,1.427-1.569,5.872-6.676,3.6-8.738-2.016-1.834-2.515,2.356-6.966-1.494l-2.016-1.833a.642.642,0,0,1-.056-1.064c.859-.948,1.984-1.823,2.937-2.876,4.394-4.836,5.6-11.757.4-16.474-5.214-4.741-11.88-2.452-16.185,2.281-.686.76-3.583,5-8.164,10.052-.795.869-1.624,1.643-2.418,2.514-.978,1.082-2.094,2.871-.7,4.14,2.189,1.989,3.748-2.521,6.363-.147Z" transform="translate(-1399.54 -623.039)"/><path class="a" d="M1529.523,689.6c1.143-.931,1.881-1.708,3.08-.438,1.879,1.985.549,4-1.12,5.578-2.122,2.009-4.033,2.458-6.141.227-1.058-1.116-.143-1.666.817-2.43Zm-19.107,2.784c-4.45,4.206-5.638.467-7.418,2.148-2.5,2.366,2.088,7.226,3.645,8.869,5.23,5.532,6.966,5.52,8.2,4.355,1.648-1.553-.483-2.838.827-4.6a31.115,31.115,0,0,1,3.088-3.373c2.162-2.042,2.522-1.865,3.242-1.106,1.764,1.869.779,3.91-.432,5.775-3.516,5.326-6.023,8.991-.849,14.463,3.647,3.856,6.511,4.13,7.8,2.909,2.091-1.979-1.921-2.382.871-5.8,3.236-3.957,3.807-6.519,2.43-9.752-.211-.575-.493-1.143.02-1.621.406-.388.732-.247,1.2-.1a7.383,7.383,0,0,0,7.7-1.78c4.546-4.3,2.024-10.4-1.627-14.262-2.1-2.217-4.442-4.212-6.51-6.4-1.326-1.4-2.408-3.031-3.731-4.433-1.3-1.368-4.061-3.808-5.94-2.032-2.12,2.005,2.526,2.539-2.78,7.549Z" transform="translate(-1339.326 -624.597)"/><path class="a" d="M1485.171,716.319H1437v46.293h48.134l45.182,26.58,45.187-26.58h48.128V716.319h-48.166l-45.149-26.554Zm45.144-23.571,40.078,23.571h-80.149Zm0,93.457-40.11-23.593h80.217Zm-90.744-26.166V718.89h181.487v41.15Z" transform="translate(-1405.344 -609.664)"/><g transform="translate(96.973 28.817)"><path class="a" d="M1500.678,671.328c-2.106,0-3.15,5.548-6.952,5.548a3.139,3.139,0,0,1-2.923-3.385,12.178,12.178,0,0,1,3.621-8.018,18.564,18.564,0,0,0-6.749-1.2c-10.259,0-18.2,7.058-18.2,17.026,0,10.017,7.712,17.261,17.643,17.261a20.323,20.323,0,0,0,10.3-2.778,2,2,0,0,1-.2-.889c0-2.5,2.909-1.513,3.852-3.293a18.836,18.836,0,0,0,.7-4.98l.376-10.394C1502.331,671.286,1501.346,671.328,1500.678,671.328Zm-11.223,20.226c-5.079,0-7.9-11.244-7.9-15.239,0-2.305,1.312-5.029,3.945-5.029,5.505,0,8.052,10.947,8.052,15.231C1493.557,689.058,1492.322,691.554,1489.455,691.554Z" transform="translate(-1469.471 -664.27)"/><path class="a" d="M1507.286,664.27a5.98,5.98,0,0,0-1.929.326,15.836,15.836,0,0,1-3.675.334h-11.564a23.221,23.221,0,0,1-4.051-.334,13.633,13.633,0,0,0-1.746-.326,3.85,3.85,0,0,0-2.444,1.2c8,3.09,11.222,11.423,11.222,16.291a16.072,16.072,0,0,1-8.233,14.014c1.328,2.72,8.8,2.643,10.985,2.643,8.8,0,9.683-2.078,9.683-3.532,0-3.293-4.315-.612-4.315-6.208V674.243c0-.376-.191-2.915,1.648-2.915,2.4,0,2.348,5.548,6.441,5.548,2.4,0,3.613-1.547,3.613-3.9C1512.92,667.895,1509.124,664.27,1507.286,664.27Z" transform="translate(-1456.923 -664.27)"/></g><g transform="translate(83.096 51.333)"><path class="a" d="M1462.9,680.332a2.5,2.5,0,1,1,3.4.947,2.495,2.495,0,0,1-3.4-.947" transform="translate(-1462.572 -674.311)"/><path class="a" d="M1500.123,679.192a2.5,2.5,0,1,1,3.406.948,2.5,2.5,0,0,1-3.406-.948" transform="translate(-1424.916 -675.463)"/></g><path class="a" d="M1457.5,752.878a7.158,7.158,0,0,0-.664-3.158,20.586,20.586,0,0,1-1.124-3.2,2.249,2.249,0,0,1,.636-1.69,2.155,2.155,0,0,1,1.569-.692,3.111,3.111,0,0,1,1.752.885,3.583,3.583,0,0,1,1.046,1.513c.181.563-.083,1.044.237,1.541a.831.831,0,0,0,1.4-.139,1.706,1.706,0,0,0,.1-1.124,4.792,4.792,0,0,0-1.627-2.675,5.054,5.054,0,0,0-3.245-1.625,3.486,3.486,0,0,0-2.786,1.122,3.447,3.447,0,0,0-.986,2.259,6.7,6.7,0,0,0,.774,3.249,11.633,11.633,0,0,1,1.082,3.253,1.853,1.853,0,0,1-.593,1.34,2.461,2.461,0,0,1-1.774.794,2.835,2.835,0,0,1-2-.935,5.148,5.148,0,0,1-.847-1.04.134.134,0,0,1-.018-.028,2.937,2.937,0,0,1-.384-1.016,1.816,1.816,0,0,1-.032-.235c-.008-.581.285-1.062.277-1.414a.8.8,0,0,0-1.482-.422,2.958,2.958,0,0,0-.427,1.342,3.114,3.114,0,0,0,.016.609l0,.01,0,.006a3.753,3.753,0,0,0,.173.744c.016.044.036.092.052.137a3.953,3.953,0,0,0,.3.644l.165.256a9.458,9.458,0,0,0,1.2,1.444,4.823,4.823,0,0,0,3.343,1.625,3.919,3.919,0,0,0,2.832-1.273,3.518,3.518,0,0,0,1.034-2.108" transform="translate(-1393.84 -556.31)"/><path class="a" d="M1448.591,737.882a.669.669,0,0,0,.621,1.064l4.289.095c.8.016,1.35.177,1.6.772.175.418-.09.74-.728.736l-6.349-.078a4.852,4.852,0,0,0-2.176.571l-3.649,2.138a.933.933,0,1,1-.913-1.559l3.649-2.136a4.94,4.94,0,0,0,1.569-1.611l3.015-5.632c.3-.561.787-.618,1.076-.121a1.8,1.8,0,0,1-.012,1.835Z" transform="translate(-1401.66 -567.163)"/><path class="a" d="M1525.1,738.562a.668.668,0,0,0,.62-1.064l-2.024-3.782c-.38-.706-.509-1.263-.113-1.774.278-.358.688-.285,1,.272l3.052,5.57a4.824,4.824,0,0,0,1.567,1.613l3.655,2.128a.932.932,0,1,1-.909,1.561l-3.655-2.128a4.9,4.9,0,0,0-2.172-.573l-6.389.141c-.635.012-.923-.382-.631-.879a1.8,1.8,0,0,1,1.6-.891Z" transform="translate(-1322.419 -567.223)"/><path class="a" d="M1449.359,751.128a7.961,7.961,0,0,0,5.3-2.168,8.64,8.64,0,0,0,3.258-4.8,5.683,5.683,0,0,0-5.324-6.545q-2.483-.205-5.4,2.166a8.019,8.019,0,0,0-3.206,4.743,5.322,5.322,0,0,0,1.177,4.538,5.154,5.154,0,0,0,4.2,2.064m-3.808-5.92a7.485,7.485,0,0,1,2.824-3.973,7.256,7.256,0,0,1,4.458-1.951,3.3,3.3,0,0,1,2.744,1.306,3.178,3.178,0,0,1,.718,2.949,7.265,7.265,0,0,1-2.816,3.971,7.494,7.494,0,0,1-4.465,1.955,3.177,3.177,0,0,1-2.732-1.312,3.294,3.294,0,0,1-.73-2.945" transform="translate(-1398.383 -561.277)"/><path class="a" d="M1462.056,761.861a.932.932,0,1,1-1.5-1.006l2.241-3.341a1.169,1.169,0,0,0-.313-1.613l-3.406-2.283a1.167,1.167,0,0,0-1.609.324l-2.241,3.339a.96.96,0,1,1-1.559-1.044l6.5-9.69a.962.962,0,1,1,1.559,1.046l-2.156,3.216a1.167,1.167,0,0,0,.31,1.615l3.4,2.283a1.171,1.171,0,0,0,1.615-.324l2.156-3.216a.933.933,0,1,1,1.5,1Z" transform="translate(-1388.72 -552.816)"/><path class="a" d="M1461.332,761.409a.959.959,0,1,1-1.643-.9l5.6-10.232a.96.96,0,1,1,1.643.9Z" transform="translate(-1382.563 -549.13)"/><path class="a" d="M1470.255,765.664c1.931-.475,3.464-1.893,4.606-4.28s1.306-4.447.477-6.169c-.487-1.086-1.736-2.114-3.725-3.068l-2.466-1.181a1.175,1.175,0,0,0-1.563.551l-5.039,10.516a1.174,1.174,0,0,0,.555,1.557l2.655,1.273a6.7,6.7,0,0,0,4.5.8m3.57-9.81c.438,1.217.171,2.824-.784,4.818-.851,1.78-1.794,2.854-2.812,3.212a4.788,4.788,0,0,1-3.947-.451l-.839-.4a1.168,1.168,0,0,1-.547-1.553l3.763-7.857a1.171,1.171,0,0,1,1.553-.547l.839.4c1.565.75,2.486,1.535,2.774,2.375" transform="translate(-1379.617 -547.873)"/><path class="a" d="M1479.027,754.881a1.672,1.672,0,0,0-1.054-1.386,1.705,1.705,0,0,0-1.587.714l-7.517,10.351c-.374.521-.324,1.032.127,1.143a1.672,1.672,0,0,0,1.488-.736l1.072-1.464a1.908,1.908,0,0,1,1.827-.66l3.765.927a1.826,1.826,0,0,1,1.269,1.438l.209,1.744a1.684,1.684,0,0,0,1.084,1.388c.525.129.885-.288.807-.923Zm-1.1,6.475a.753.753,0,0,1-1,.871l-2.643-.65a.73.73,0,0,1-.446-1.223l2.712-3.8c.382-.519.746-.424.815.211Z" transform="translate(-1373.358 -545.226)"/><path class="a" d="M1485.484,766.584a5.072,5.072,0,0,1-2.84,1.169,2.813,2.813,0,0,1-2.074-.913,2.6,2.6,0,0,1-.825-2.032,3.908,3.908,0,0,1,.612-1.931,3.593,3.593,0,0,1,1.77-1.486,39.358,39.358,0,0,0,3.357,5.194m2.022,2.194a4.33,4.33,0,0,0,1.1.107c.638.014.794-.354.356-.811,0,0-.82-.859-1.38-1.591a9.291,9.291,0,0,0,1.768-5.521l-.493-.01c-.635-.012-.869.362-1.062,1.235-.083.38-.219,1.032-.378,1.551a4.949,4.949,0,0,1-.75,1.577,28.635,28.635,0,0,1-3.009-4.685,5.666,5.666,0,0,0,2.06-1.762,3.264,3.264,0,0,0,.764-2.006,2.449,2.449,0,0,0-.756-1.748,2.968,2.968,0,0,0-2.15-.766,3.087,3.087,0,0,0-2.329.819,2.65,2.65,0,0,0-.976,2,2.983,2.983,0,0,0,.189,1.02,9.812,9.812,0,0,0,.831,1.742c.074.123-.294.509-.833.849a6.014,6.014,0,0,0-1.45,1.414,4.107,4.107,0,0,0-1,2.649,4.02,4.02,0,0,0,1.237,3.053,4.388,4.388,0,0,0,3.223,1.3,5.168,5.168,0,0,0,3.852-1.509,6.644,6.644,0,0,0,1.187,1.1m-5.439-11.717a1.672,1.672,0,0,1,.456-1.076,1.28,1.28,0,0,1,.946-.344,2.081,2.081,0,0,1,1.074.386,1.322,1.322,0,0,1,.415.951,2.135,2.135,0,0,1-.458,1.143,1.4,1.4,0,1,1-2.432-1.06" transform="translate(-1363.864 -544.339)"/><path class="a" d="M1496.6,764.882a.771.771,0,0,0-.425.412,3.206,3.206,0,0,1-.633,1.271,3.476,3.476,0,0,1-1.975.909,3.577,3.577,0,0,1-3.058-.833,7.61,7.61,0,0,1-2.03-4.5,7.842,7.842,0,0,1,.529-4.908,3.767,3.767,0,0,1,2.73-1.684,3.474,3.474,0,0,1,2.078.191,1.874,1.874,0,0,1,.772.776,1.636,1.636,0,0,0,.481.442c.511.2,1.123-.462.845-1.174a3.681,3.681,0,0,0-.953-1.1,4.6,4.6,0,0,0-3.52-.537,5.517,5.517,0,0,0-3.983,2.535q-1.418,2.046-.831,5.759a7.961,7.961,0,0,0,2.583,5.214,5.506,5.506,0,0,0,4.572,1.169,6.038,6.038,0,0,0,1.99-.644c.034-.018.06-.044.093-.062a4.546,4.546,0,0,0,.624-.445c.054-.052.1-.115.153-.169a3.321,3.321,0,0,0,.33-.366c.024-.034.036-.06.058-.095s.032-.036.044-.056a.153.153,0,0,0,.016-.05,3.365,3.365,0,0,0,.434-1.068c.032-.634-.294-1.088-.923-.988" transform="translate(-1355.323 -544.646)"/><path class="a" d="M1504.7,764.26a8.035,8.035,0,0,0,.09-5.723,8.725,8.725,0,0,0-3.11-4.892,5.446,5.446,0,0,0-4.613-.638,5.364,5.364,0,0,0-3.514,2.949c-.781,1.466-.835,3.406-.149,5.819a8,8,0,0,0,3.1,4.816,5.29,5.29,0,0,0,4.626.71,5.183,5.183,0,0,0,3.565-3.041m-6.95,1.163a7.5,7.5,0,0,1-2.534-4.162,7.264,7.264,0,0,1-.034-4.868,3.3,3.3,0,0,1,2.279-2,3.17,3.17,0,0,1,3,.5,7.269,7.269,0,0,1,2.536,4.156,7.483,7.483,0,0,1,.033,4.874,3.171,3.171,0,0,1-2.283,1.993,3.307,3.307,0,0,1-2.991-.493" transform="translate(-1348.776 -545.941)"/><path class="a" d="M1510.24,760.78a1.669,1.669,0,0,1-.71,1.555,1.707,1.707,0,0,1-1.684-.366l-5.185-4.552c-.479-.418-.646-.292-.362.284l3.655,7.43c.28.571.195,1.2-.2,1.39s-.949-.119-1.231-.688l-5.147-10.468a1.07,1.07,0,0,1,.293-1.452,1.725,1.725,0,0,1,1.7.364l6.537,5.576c.487.41.853.232.8-.4l-.635-8.471a1.682,1.682,0,0,1,.694-1.545,1.06,1.06,0,0,1,1.3.67l5.147,10.468c.28.571.2,1.2-.205,1.4s-.937-.125-1.219-.7l-3.75-7.626c-.28-.565-.464-.519-.414.115Z" transform="translate(-1342.397 -549.372)"/><path class="a" d="M1515.843,751.97a4.4,4.4,0,0,0-.712-3.524,3.512,3.512,0,0,0-2.866-1.82,6.416,6.416,0,0,0-3.4,1.408l-2.277,1.525a1.17,1.17,0,0,0-.31,1.619l6.489,9.692a.96.96,0,1,0,1.559-1.042l-1.8-2.687a1.168,1.168,0,0,1,.326-1.613l.469-.314a5.489,5.489,0,0,0,2.523-3.242m-3.816-3.619a2.255,2.255,0,0,1,1.587,1.2,3.443,3.443,0,0,1,.6,2.2c-.062.861-.758,1.722-2.078,2.607l-.046.03a1.165,1.165,0,0,1-1.615-.312l-1.839-2.748a1.169,1.169,0,0,1,.324-1.615l.771-.515a4.037,4.037,0,0,1,2.3-.845" transform="translate(-1335.468 -552.151)"/><path class="a" d="M1513.717,743.962a1.641,1.641,0,0,0-1.724.082,1.717,1.717,0,0,0-.31,1.724l4.347,12.027c.215.607.67.849,1.006.547a1.679,1.679,0,0,0,.243-1.658l-.612-1.71a1.891,1.891,0,0,1,.471-1.873l2.887-2.6a1.827,1.827,0,0,1,1.9-.246l1.561.807a1.692,1.692,0,0,0,1.758-.117c.4-.358.258-.893-.31-1.187Zm4.745,4.542a.751.751,0,0,1,.171,1.308l-2.03,1.826a.735.735,0,0,1-1.266-.314l-1.609-4.383c-.224-.6.063-.851.633-.557Z" transform="translate(-1329.902 -555.048)"/><path class="a" d="M1530.962,745.342a1.066,1.066,0,0,1,.312,1.438,2.075,2.075,0,0,1-1.73.521l-10.661-1.535c-.636-.095-.754.169-.261.585l6.714,5.662a.9.9,0,1,1-1.116,1.326l-8.917-7.521a1.059,1.059,0,0,1-.314-1.442,2.13,2.13,0,0,1,1.736-.535l10.647,1.454c.634.089.752-.185.265-.594l-6.658-5.616a.877.877,0,1,1,1.066-1.263Z" transform="translate(-1326.63 -561.409)"/></g></svg>